<svg width="60" height="60" viewBox="0 0 60 60" fill="none" xmlns="http://www.w3.org/2000/svg">
<rect width="60" height="60" fill="white"/>
<path d="M9.28337 6.16339C9.28337 6.23704 9.28092 6.23704 9.1508 6.23704C9.07961 6.23704 8.95195 6.2444 8.86848 6.25177L8.71872 6.26895V6.43589V6.60529H8.6328H8.54688V30.1855V53.7657H8.6328C8.71381 53.7657 8.71872 53.7706 8.71872 53.8516C8.71872 53.9326 8.72363 53.9375 8.80465 53.9375C8.88566 53.9375 8.89057 53.9424 8.89057 54.0235V54.1094H19.1033H29.3161V54.0235C29.3161 53.94 29.3186 53.9375 29.4143 53.9375H29.5125V30.1855V6.43344H29.4266C29.3456 6.43344 29.3407 6.42853 29.3407 6.34997V6.2665L29.1443 6.24931C28.9479 6.23213 28.9479 6.23213 28.9479 6.16093V6.08974H19.1156H9.28337V6.16339ZM12.4454 7.92362C12.4528 7.99726 12.4601 8.00463 12.5387 8.00463H12.6222V10.9261V13.8475H12.7056C12.7842 13.8475 12.7916 13.8401 12.7989 13.7665C12.8063 13.6953 12.8137 13.6879 12.8996 13.6806L12.9904 13.6732V10.7518V7.83278H14.0092H15.0281V8.63065V9.42853H15.2097H15.3914L15.4012 8.65766C15.4061 8.23294 15.4184 7.87697 15.4282 7.8647C15.4405 7.85488 15.8996 7.84506 16.447 7.84506H17.4462L17.4536 7.92362C17.461 7.99726 17.4683 8.00463 17.5469 8.00463H17.6303V12.62V17.2354H17.7163C17.7973 17.2354 17.8022 17.2305 17.8022 17.1495C17.8022 17.066 17.8046 17.0635 17.9004 17.0635H17.9986L18.0035 12.4531L18.0109 7.84506L19.0199 7.83769L20.0289 7.83278L20.0461 7.96044C20.0534 8.03164 20.0608 8.6282 20.0608 9.28368V10.4793L20.2204 10.4964C20.3063 10.5038 20.3898 10.5063 20.4045 10.4964C20.4217 10.4866 20.429 10.0644 20.429 9.24195V8.00463H20.5125C20.5911 8.00463 20.5984 7.99726 20.6058 7.92362L20.6132 7.84506L21.4233 7.83769C21.8701 7.83278 22.3243 7.83769 22.4348 7.84506L22.6385 7.86224L22.6434 11.1298L22.6508 14.3999L22.83 14.4072L23.0068 14.4146V11.2526C23.0068 9.51445 23.0141 8.03164 23.0215 7.96044L23.0387 7.83278L24.0477 7.83769L25.0567 7.84506L25.0641 8.63556L25.069 9.42853H25.2531H25.4372V8.71658V8.00463H25.5207C25.5992 8.00463 25.6066 7.99726 25.614 7.92362L25.6213 7.84506H26.6402H27.659L27.6664 30.1781L27.6713 52.5136H26.6402H25.6091V52.4277C25.6091 52.3467 25.6042 52.3418 25.5231 52.3418H25.4372V48.0382C25.4372 45.674 25.4299 43.6781 25.4225 43.6069C25.4078 43.4866 25.4028 43.4793 25.3366 43.4793C25.2727 43.4793 25.2654 43.4866 25.2654 43.5652C25.2654 43.6487 25.2629 43.6511 25.1672 43.6511H25.069V48.0824V52.5136H24.0526H23.0387L23.0215 52.386C23.0141 52.3148 23.0068 51.3966 23.0068 50.3459V48.4383H23.6574H24.3079V48.3524C24.3079 48.2689 24.3104 48.2665 24.4061 48.2665H24.5043V47.6552V47.0415L24.4135 47.0341C24.3251 47.0267 24.3202 47.0218 24.3128 46.9334L24.3055 46.8426H23.6696H23.0338L23.0264 46.9359C23.0191 47.0218 23.0141 47.0267 22.9282 47.0341L22.8349 47.0415V47.4686V47.8958L22.7441 47.9032L22.6508 47.9105L22.6434 50.2108L22.6385 52.5136H21.6197H20.6009V52.4277C20.6009 52.3467 20.596 52.3418 20.515 52.3418H20.429V49.9506V47.5619L20.5592 47.5447C20.6279 47.5374 20.8709 47.53 21.0943 47.53H21.5019L21.5191 47.4171C21.5387 47.2698 21.5387 46.2559 21.5191 46.0865L21.5019 45.9588H20.785H20.0657L20.0559 46.0766C20.051 46.1405 20.051 47.53 20.0559 49.1626C20.0632 50.7976 20.0608 52.219 20.051 52.3246L20.0313 52.5136H19.015H17.9986V51.8999V51.2861H17.9446C17.9127 51.2861 17.8292 51.2788 17.7605 51.2714L17.6303 51.2542V51.7992V52.3418H17.5444C17.4634 52.3418 17.4585 52.3467 17.4585 52.4277V52.5136H16.4421H15.4258L15.4086 52.3369C15.4012 52.2387 15.3963 50.4834 15.4012 48.4383L15.4086 44.719L16.0542 44.7117L16.6974 44.7068V44.0071V43.3074H15.961H15.2245V43.7493V44.1912H15.1263H15.0281V48.3524V52.5136H14.0092H12.9904V50.5766V48.6421L12.8628 48.6249C12.7916 48.6176 12.7081 48.6102 12.6786 48.6102H12.6222V50.476V52.3418H12.5362C12.4552 52.3418 12.4503 52.3467 12.4503 52.4277V52.5136H11.4192H10.3881V30.1732V7.83278L11.4143 7.83769L12.438 7.84506L12.4454 7.92362Z" fill="black"/>
<path d="M15.2266 10.5068V11.2188H15.9631H16.6996V10.5068V9.79485H15.9631H15.2266V10.5068Z" fill="black"/>
<path d="M25.8047 10.5068V11.2188H26.5412H27.2777V10.5068V9.79485H26.5412H25.8047V10.5068Z" fill="black"/>
<path d="M15.2266 19.0999V26.6367H15.9631H16.6996V19.0999V11.5631H15.9631H15.2266V19.0999Z" fill="black"/>
<path d="M20.044 19.0925L20.0513 26.6244L20.7952 26.6318L21.5366 26.6367V19.0999V11.5631H20.7878H20.0391L20.044 19.0925Z" fill="black"/>
<path d="M25.8047 19.0999V26.6367H26.5412H27.2777V19.0999V11.5631H26.5412H25.8047V19.0999Z" fill="black"/>
<path d="M12.4366 14.3542C12.417 14.5015 12.417 15.5154 12.4366 15.6824L12.4538 15.8125H13.1706H13.8875L13.9047 15.6824C13.9243 15.5154 13.9243 14.5384 13.9047 14.369L13.8875 14.2413H13.1706H12.4538L12.4366 14.3542Z" fill="black"/>
<path d="M22.8359 23.3612V31.4258H22.9341C23.0299 31.4258 23.0323 31.4283 23.0323 31.5117V31.5977H23.6706H24.3089V31.5117C24.3089 31.4283 24.3114 31.4258 24.4071 31.4258H24.5053V23.3612V15.2965H23.6706H22.8359V23.3612Z" fill="black"/>
<path d="M12.4219 25.0437V33.9062L13.1657 33.9013L13.9071 33.894L13.9145 25.0364L13.9194 16.1812H13.1706H12.4219V25.0437Z" fill="black"/>
<path d="M18.1953 26.5403V35.1328H18.9318H19.6683V26.5403V17.9479H18.9318H18.1953V26.5403Z" fill="black"/>
<path d="M15.2266 34.6898V42.3984H15.9631H16.6996V34.6898V26.9811H15.9631H15.2266V34.6898Z" fill="black"/>
<path d="M20.0473 27.0104C20.04 27.0276 20.0375 31.0955 20.04 36.0521L20.0473 45.0619L20.7912 45.0693L21.5326 45.0742L21.5277 36.0349L21.5203 26.9932L20.7888 26.9858C20.2167 26.9809 20.0547 26.9858 20.0473 27.0104Z" fill="black"/>
<path d="M25.8047 34.2488V41.5156H26.5412H27.2777V34.2488V26.9821H26.5412H25.8047V34.2488Z" fill="black"/>
<path d="M22.8359 33.1796V33.8743L22.9661 33.8915C23.133 33.9112 24.2083 33.9112 24.3777 33.8915L24.5053 33.8743V33.1796V32.4824H23.6706H22.8359V33.1796Z" fill="black"/>
<path d="M12.4219 41.2125C12.4219 45.0447 12.4292 48.2386 12.4366 48.3098L12.4538 48.4375H13.1706H13.89L13.9071 48.2337C13.9145 48.1233 13.9194 44.9342 13.9145 41.1462L13.9071 34.2599L13.1657 34.2526L12.4219 34.2476V41.2125Z" fill="black"/>
<path d="M22.9292 34.2639L22.8359 34.2737V40.1166V45.957H23.6706H24.5053V40.1166V34.2786L24.3556 34.2614C24.1985 34.2467 23.0888 34.2467 22.9292 34.2639Z" fill="black"/>
<path d="M18.1953 42.8524V48.7812H18.9318H19.6683V42.8524V36.9236H18.9318H18.1953V42.8524Z" fill="black"/>
<path d="M25.8047 43.1245V43.8242H26.5412H27.2777V43.1245V42.4249H26.5412H25.8047V43.1245Z" fill="black"/>
<path d="M18.1953 50.3902V51.0898H18.9318H19.6683V50.3902V49.6905H18.9318H18.1953V50.3902Z" fill="black"/>
<path d="M30.6406 14.3852V15.2714H30.7265H30.8125V15.5537V15.8361H30.7265H30.6406V16.4498V17.0635H30.7265H30.8125V16.7076V16.3516H30.8959C30.977 16.3516 30.977 16.3491 30.9941 16.2215C31.0015 16.1527 31.0089 15.9981 31.0089 15.8778V15.6642H31.0923C31.1758 15.6642 31.1783 15.6617 31.1856 15.5586C31.193 15.4555 31.193 15.4555 31.2863 15.4555C31.3354 15.458 31.5048 15.4604 31.6594 15.4629L31.9418 15.4678V15.5537V15.6397H32.31H32.6783V15.7256V15.8115H32.9483H33.2184V16.0816V16.3516H33.1324H33.0465V16.6216V16.8917H32.9606C32.8796 16.8917 32.8747 16.8966 32.8747 16.9776V17.0635H33.0588H33.2429V16.9776C33.2429 16.8966 33.2478 16.8917 33.3288 16.8917H33.4148V16.6634C33.4148 16.5406 33.4221 16.3811 33.4295 16.3099C33.4442 16.1896 33.4491 16.1822 33.5228 16.1748C33.5915 16.1675 33.5989 16.1601 33.6063 16.0717L33.6136 15.976L33.7413 15.9932C33.8125 16.0005 33.8935 16.0079 33.9254 16.0079C33.9696 16.0079 33.9794 16.0226 33.9794 16.0791C33.9794 16.1454 33.9868 16.1503 34.1095 16.165C34.1783 16.1724 34.3452 16.1797 34.4778 16.1797H34.7159V16.2657V16.3516H35.0842H35.4524V16.4375C35.4524 16.521 35.4549 16.5234 35.5506 16.5234C35.6611 16.5234 35.6635 16.5333 35.6341 16.7518C35.6193 16.8573 35.612 16.8647 35.5408 16.8721L35.4647 16.8794L35.4573 17.1421L35.45 17.4072H35.3665H35.2806V17.6331C35.2806 17.7583 35.2732 17.9179 35.2658 17.9891C35.2511 18.1094 35.2462 18.1167 35.1725 18.1241L35.0964 18.1315L35.0891 18.4801L35.0817 18.8311H34.9982H34.9123V18.9711C34.9123 19.0496 34.9049 19.1724 34.8976 19.2411C34.8804 19.3688 34.8804 19.3712 34.7994 19.3712H34.7159V19.7149V20.0586H34.63H34.5441V20.174C34.5441 20.2403 34.5367 20.3999 34.5269 20.53L34.5121 20.7706H34.4287H34.3477V21.0406V21.3107H34.2617H34.1758V21.4948V21.6789H34.3452H34.5146L34.5318 21.5071L34.549 21.3352H34.6324H34.7159V21.0529V20.7706H34.7994H34.8829L34.9 20.4269L34.9172 20.0832H35.0007H35.0842V19.8549C35.0842 19.7321 35.0915 19.5725 35.0989 19.5014C35.1136 19.3811 35.1185 19.3737 35.1922 19.3663L35.2683 19.359L35.2756 19.0938L35.283 18.8311H35.3665H35.45L35.4573 18.4801L35.4647 18.1315L35.558 18.1241L35.6488 18.1167V17.773V17.4318H35.7347H35.8182L35.8256 17.1544L35.8329 16.8794L35.9262 16.8721C36.0121 16.8647 36.0171 16.8598 36.0171 16.7788V16.6953H36.2576C36.3878 16.6953 36.5547 16.7027 36.6259 16.71C36.7462 16.7248 36.7536 16.7297 36.7536 16.796C36.7536 16.8647 36.756 16.8671 36.8861 16.8671C36.9573 16.8671 37.085 16.8745 37.1684 16.8819C37.3108 16.8991 37.3182 16.9015 37.3182 16.9653C37.3182 17.0267 37.328 17.0341 37.4483 17.0488C37.5171 17.0562 37.6447 17.0635 37.7306 17.0635H37.8829V17.1495C37.8829 17.2305 37.8878 17.2354 37.9688 17.2354C38.0498 17.2354 38.0547 17.2403 38.0547 17.3213C38.0547 17.4023 38.0498 17.4072 37.9688 17.4072H37.8829V17.6773V17.9473H37.7994C37.7184 17.9473 37.7184 17.9498 37.7012 18.075C37.6938 18.1462 37.6865 18.3082 37.6865 18.431V18.6593H37.6005H37.5146V18.8729C37.5146 18.9932 37.5072 19.1478 37.4999 19.2166C37.4827 19.3442 37.4827 19.3467 37.4017 19.3467H37.3182V19.629V19.9113H37.2347H37.1513L37.1341 20.255L37.1169 20.5987H37.0334H36.95V20.8246C36.95 20.9498 36.9426 21.1118 36.9352 21.1806C36.918 21.3082 36.918 21.3107 36.837 21.3107C36.7585 21.3107 36.7536 21.3156 36.7536 21.3966C36.7536 21.4703 36.7609 21.4825 36.81 21.4825C36.8395 21.4825 36.9229 21.4899 36.9941 21.4973L37.1218 21.5144V21.4113C37.1218 21.3131 37.1243 21.3107 37.2053 21.3107C37.2863 21.3107 37.2863 21.3082 37.3035 21.1806C37.3108 21.1118 37.3182 20.9498 37.3182 20.8246V20.5987H37.4041H37.4901V20.3827C37.4901 20.2649 37.4974 20.1102 37.5048 20.039C37.522 19.9138 37.522 19.9113 37.603 19.9113H37.6865V19.6683C37.6865 19.5357 37.6938 19.3761 37.7012 19.3123C37.7159 19.2092 37.7233 19.1994 37.7847 19.1994C37.8485 19.1994 37.8509 19.192 37.8681 19.0496C37.8755 18.9662 37.8829 18.8434 37.8829 18.7796V18.6593H37.9688H38.0547V18.431C38.0547 18.3082 38.0621 18.1462 38.0694 18.075C38.0866 17.9498 38.0866 17.9473 38.1676 17.9473H38.2511V17.6773V17.4072H38.337C38.418 17.4072 38.4229 17.4023 38.4229 17.3213C38.4229 17.2256 38.4279 17.2231 38.6635 17.2501C38.7838 17.2649 38.7912 17.2698 38.7912 17.3361V17.4072H39.0735H39.3558V17.4932V17.5791H39.5964C39.7265 17.5791 39.8935 17.5865 39.9647 17.5938C40.085 17.6086 40.0923 17.6159 40.0923 17.6773C40.0923 17.7436 40.0973 17.746 40.2765 17.7632L40.4606 17.7804V17.8639C40.4606 17.9424 40.4557 17.9473 40.3747 17.9473H40.2887V18.2174V18.4874H40.2053H40.1218L40.1046 18.8434L40.0874 19.1994H40.004H39.9205V19.5406V19.8843L39.8297 19.8917L39.7364 19.8991L39.729 20.1617L39.7216 20.4269H39.6382H39.5522V20.7829V21.1388H39.454H39.3558V21.4948V21.8508H39.2699H39.184V22.0644C39.184 22.1847 39.1766 22.3393 39.1693 22.4081C39.1521 22.5357 39.1521 22.5382 39.0711 22.5382H38.9876V22.8082V23.0783H38.9017H38.8157V23.3041C38.8157 23.4293 38.8084 23.5914 38.801 23.6601C38.7838 23.7878 38.7838 23.7902 38.7028 23.7902H38.6193V24.0161C38.6193 24.1413 38.612 24.3033 38.6046 24.3721C38.5899 24.4924 38.5825 24.5022 38.5211 24.5022C38.4573 24.5022 38.4549 24.5095 38.4377 24.6519C38.4303 24.7354 38.4229 24.8581 38.4229 24.922V25.0423H38.337H38.2511V25.2681C38.2511 25.3933 38.2437 25.5554 38.2364 25.6241C38.2216 25.7469 38.2143 25.7542 38.1504 25.7542C38.0842 25.7542 38.0842 25.7591 38.067 25.931C38.0572 26.0292 38.0547 26.1495 38.0596 26.1961L38.067 26.282L38.2462 26.2894L38.4229 26.2968V26.1544C38.4229 26.0758 38.4303 25.9555 38.4377 25.8843C38.4524 25.764 38.4573 25.7567 38.531 25.7493L38.6071 25.7419L38.6144 25.3909L38.6218 25.0423H38.7028H38.7863L38.8035 24.6863L38.8207 24.3303H38.9041H38.9876V24.0603V23.7902H39.0711H39.1545L39.1717 23.4343L39.1889 23.0783H39.2724H39.3558V22.737V22.3933L39.4491 22.386L39.54 22.3786L39.5473 22.1135L39.5547 21.8508H39.6382H39.7241V21.4948V21.1388H39.8223H39.9205V20.7829V20.4269H40.0064H40.0923V20.1961C40.0923 20.0709 40.0997 19.9162 40.1071 19.8524C40.1218 19.7444 40.1267 19.7395 40.2053 19.7395H40.2887V19.4572V19.1748H40.3747H40.4606V18.9588C40.4606 18.841 40.468 18.6863 40.4753 18.6151C40.4925 18.4899 40.4925 18.4874 40.5735 18.4874H40.657V18.2174V17.9473H41.0252H41.3935V18.0333V18.1192H41.6341C41.7642 18.1192 41.9311 18.1266 42.0023 18.1339C42.1226 18.1487 42.13 18.1536 42.13 18.2198V18.291H42.4099H42.6873L42.702 18.4187C42.7069 18.4899 42.7069 18.6519 42.6995 18.7747L42.6873 19.003H42.6063H42.5228V19.2289C42.5228 19.3541 42.5154 19.5161 42.5081 19.5848C42.4909 19.7125 42.4909 19.7149 42.4099 19.7149H42.3264V19.985V20.255H42.2405H42.1545V20.4809C42.1545 20.6061 42.1472 20.7681 42.1398 20.8369C42.1226 20.9645 42.1226 20.967 42.0416 20.967H41.9581V21.3107V21.6544H41.8722H41.7863V21.787C41.7863 21.8581 41.7789 21.9858 41.7716 22.0693L41.7544 22.219H41.6734H41.5899V22.5627V22.9064H41.5064H41.4229L41.4058 23.2624L41.3886 23.6184H41.3051H41.2216V23.8491C41.2216 23.9743 41.2143 24.129 41.2069 24.1904C41.1922 24.296 41.1848 24.3033 41.1136 24.3107L41.0375 24.318L41.0301 24.593L41.0228 24.8704H40.9393H40.8534V25.084C40.8534 25.2043 40.846 25.3565 40.8387 25.4277C40.8239 25.548 40.819 25.5554 40.7454 25.5627L40.6693 25.5701L40.6619 25.9187L40.6545 26.2698H40.5711H40.4851V26.4097C40.4851 26.4883 40.4778 26.611 40.4704 26.6798C40.4532 26.8074 40.4532 26.8099 40.3722 26.8099H40.2887V27.1658V27.5218H40.2053H40.1218L40.1046 27.8778L40.0874 28.2338H40.004H39.9205V28.4645C39.9205 28.5897 39.9131 28.7444 39.9058 28.8058C39.891 28.9113 39.8837 28.9187 39.8125 28.9261L39.7364 28.9334L39.729 29.2084L39.7216 29.4858H39.6382H39.5522V29.6994C39.5522 29.8197 39.5449 29.9719 39.5375 30.0431C39.5228 30.1634 39.5179 30.1707 39.4442 30.1781L39.3681 30.1855L39.3608 30.5341L39.3534 30.8852H39.2699H39.1865L39.1791 31.1478L39.1717 31.413L39.0809 31.4203L38.9876 31.4277V31.7837V32.1372H38.9017H38.8157V32.3508C38.8157 32.4711 38.8084 32.6257 38.801 32.6945C38.7838 32.8221 38.7838 32.8246 38.7028 32.8246H38.6193V33.0676C38.6193 33.2002 38.612 33.3598 38.6046 33.4236C38.5899 33.5267 38.5825 33.5365 38.5211 33.5365C38.4573 33.5365 38.4549 33.5439 38.4377 33.6863C38.4303 33.7698 38.4229 33.8925 38.4229 33.9563V34.0766H38.337H38.2511V34.3025C38.2511 34.4277 38.2437 34.5897 38.2364 34.6585C38.2216 34.7788 38.2143 34.7886 38.1529 34.7886C38.0915 34.7886 38.0842 34.7984 38.0694 34.9162C38.0621 34.9874 38.0547 35.1421 38.0547 35.2599V35.476H37.9688H37.8853L37.8779 35.7509L37.8706 36.0284L37.7945 36.0357C37.7208 36.0431 37.7159 36.0505 37.7012 36.1707C37.6938 36.2419 37.6865 36.3942 37.6865 36.512V36.728H37.6005H37.5146V36.9539C37.5146 37.0791 37.5072 37.2411 37.4999 37.3099C37.4827 37.4375 37.4827 37.44 37.4017 37.44H37.3182V37.6658C37.3182 37.791 37.3108 37.9531 37.3035 38.0218C37.2887 38.1421 37.2814 38.1519 37.22 38.1519C37.1562 38.1519 37.1537 38.1593 37.1365 38.3017C37.1292 38.3852 37.1218 38.5079 37.1218 38.5717V38.692H37.0359H36.95V38.9179C36.95 39.0431 36.9426 39.2051 36.9352 39.2763C36.9205 39.3942 36.9131 39.404 36.8518 39.404C36.7904 39.404 36.783 39.4138 36.7683 39.5316C36.7609 39.6028 36.7536 39.7575 36.7536 39.8753V40.0914H36.6676H36.5842L36.5768 40.3663L36.5694 40.6437L36.4933 40.6511C36.4221 40.6585 36.4148 40.6658 36.4 40.7714C36.3927 40.8328 36.3853 40.9874 36.3853 41.1126V41.3434H36.2994H36.2135V41.5496C36.2135 41.6601 36.2061 41.8221 36.1987 41.9056L36.1815 42.0554H36.1005H36.0171V42.3991V42.7428H35.9336H35.8526L35.8354 42.8925C35.828 42.976 35.8207 43.1036 35.8207 43.1748V43.3074H35.7347H35.6488V43.6511V43.9948H35.5653C35.4843 43.9948 35.4843 43.9973 35.4671 44.1225C35.4598 44.1937 35.4524 44.3557 35.4524 44.4784V44.7068H35.3665H35.2806V44.9768V45.2469H35.1971C35.1161 45.2469 35.1161 45.2493 35.0989 45.3745C35.0915 45.4457 35.0842 45.6077 35.0842 45.7305V45.9588H34.9982H34.9123V46.1847C34.9123 46.3099 34.9049 46.4719 34.8976 46.5406C34.8804 46.6683 34.8804 46.6707 34.7994 46.6707H34.7159V47.0144V47.3581H34.63H34.5441V47.4981C34.5441 47.5766 34.5367 47.6994 34.5293 47.7706C34.5121 47.8958 34.5121 47.8982 34.4311 47.8982H34.3477V48.2542V48.6102H34.2642H34.1807L34.1635 48.9662L34.1464 49.3221H34.0629H33.9794V49.5922V49.8622H33.8959C33.8149 49.8622 33.8149 49.8647 33.7977 49.9899C33.7904 50.0611 33.783 50.2231 33.783 50.3459V50.5742H33.6971H33.6112V50.7878C33.6112 50.9081 33.6038 51.0603 33.5964 51.1315C33.5817 51.2518 33.5768 51.2591 33.5031 51.2665L33.427 51.2739L33.4197 51.6249L33.4123 51.9735H33.3288H33.2429V52.1577V52.3418H33.1447C33.049 52.3418 33.0465 52.3442 33.0465 52.4277V52.5136H32.0277H31.0089V52.2559V51.9981H31.0948H31.1807V51.7698C31.1807 51.647 31.1881 51.485 31.1955 51.4138C31.2126 51.2886 31.2126 51.2861 31.2937 51.2861H31.3771V51.0161V50.746H31.463H31.549V50.5177C31.549 50.395 31.5563 50.2329 31.5637 50.1642C31.5809 50.0365 31.5809 50.0341 31.6619 50.0341H31.7454V49.6904V49.3467H31.8313H31.9172V49.192C31.9172 49.1086 31.9246 48.9809 31.932 48.9122C31.9491 48.7845 31.9491 48.782 32.0302 48.782H32.1112L32.1185 48.431L32.1259 48.0824L32.202 48.075C32.2756 48.0676 32.2806 48.0603 32.2953 47.94C32.3027 47.8688 32.31 47.7166 32.31 47.5963V47.3827H32.3959H32.4819V47.1126V46.8426H32.5653C32.6464 46.8426 32.6464 46.8401 32.6635 46.7125C32.6709 46.6437 32.6783 46.4817 32.6783 46.3565V46.1307H32.7642H32.8501V45.9023C32.8501 45.7796 32.8575 45.6176 32.8648 45.5464C32.882 45.4212 32.882 45.4187 32.963 45.4187H33.0465V45.0775V44.7362L33.2184 44.719C33.3141 44.7092 33.4786 44.7092 33.5866 44.719C33.783 44.7362 33.783 44.7362 33.783 44.8074C33.783 44.8786 33.783 44.8786 33.9377 44.8786C34.0211 44.8786 34.1488 44.886 34.22 44.8933C34.3403 44.9081 34.3477 44.913 34.3477 44.9793C34.3477 45.0455 34.355 45.0505 34.4459 45.0505C34.5392 45.0505 34.5441 45.0455 34.5441 44.9768C34.5441 44.9081 34.5514 44.9032 34.63 44.9032H34.7159V44.6331V44.3631H34.8018C34.8853 44.3631 34.8878 44.3606 34.8878 44.2698C34.8878 44.2158 34.8951 44.0562 34.9049 43.9138L34.9197 43.6511H34.819C34.7184 43.6511 34.7159 43.6487 34.7159 43.5652V43.4793H34.3477H33.9794V43.3933V43.3074H33.783H33.5866V43.3786C33.5866 43.4424 33.5768 43.4523 33.5081 43.4596L33.427 43.467L33.4197 43.7419L33.4123 44.0194H33.3288H33.2429V44.1912V44.3631H33.0612H32.8796L32.8624 44.5472L32.8452 44.7313H32.7617H32.6783V45.075V45.4187H32.5948H32.5138L32.4966 45.5685C32.4892 45.6519 32.4819 45.814 32.4819 45.9244V46.1307H32.3959H32.31V46.3565C32.31 46.4817 32.3027 46.6437 32.2953 46.7149C32.2781 46.8401 32.2781 46.8426 32.1971 46.8426H32.1136V47.1126V47.3827H32.0277H31.9418V47.5889C31.9418 47.6994 31.9344 47.8614 31.927 47.9449L31.9099 48.0946H31.8288H31.7454V48.4383V48.782H31.6619H31.5784L31.5612 49.138L31.5441 49.494H31.4606H31.3771V49.764V50.0341H31.2937C31.2126 50.0341 31.2126 50.0365 31.1955 50.1617C31.1881 50.2329 31.1807 50.395 31.1807 50.5177V50.746H31.0948H31.0089V50.9719C31.0089 51.0971 31.0015 51.2591 30.9941 51.3279C30.977 51.4555 30.977 51.458 30.8959 51.458H30.8125V51.8017V52.1454H30.7265H30.6406V53.1274V54.1094H32.4941H34.3477V54.0235C34.3477 53.9424 34.3526 53.9375 34.4336 53.9375C34.5146 53.9375 34.5195 53.9326 34.5195 53.8516C34.5195 53.7681 34.522 53.7657 34.6177 53.7657H34.7159V53.5816V53.3974H34.7994H34.8829L34.9 53.0415L34.9172 52.6855H35.0007H35.0842V52.4547C35.0842 52.3295 35.0915 52.1748 35.0989 52.1135C35.1136 52.0079 35.121 52.0005 35.1922 51.9932L35.2683 51.9858L35.2756 51.7084L35.283 51.4334H35.3665H35.4524V51.0922V50.7485L35.5457 50.7411L35.6365 50.7338L35.6439 50.3827L35.6513 50.0341H35.7347H35.8182L35.8256 49.7689L35.8329 49.5063L35.9262 49.4989L36.0171 49.4915V49.1356V48.782H36.103H36.1889V48.566C36.1889 48.4482 36.1963 48.2935 36.2036 48.2223C36.2208 48.0971 36.2208 48.0946 36.3018 48.0946H36.3853V47.8516C36.3853 47.719 36.3927 47.5595 36.4 47.4956C36.4148 47.3925 36.4221 47.3827 36.4835 47.3827C36.5473 47.3827 36.5498 47.3753 36.567 47.2329C36.5743 47.1495 36.5817 47.0267 36.5817 46.9629V46.8426H36.6676H36.7536V46.4866V46.1307H36.837C36.918 46.1307 36.918 46.1282 36.9352 46.0005C36.9426 45.9318 36.95 45.7771 36.95 45.6568V45.4433H37.0359H37.1193L37.1267 45.1658L37.1341 44.8909L37.2102 44.8835C37.2814 44.8762 37.2887 44.8688 37.3035 44.7632C37.3108 44.7018 37.3182 44.5472 37.3182 44.422V44.1912H37.4041H37.4901V43.9629C37.4901 43.8401 37.4974 43.6781 37.5048 43.6069C37.522 43.4817 37.522 43.4793 37.603 43.4793H37.6865V43.2509C37.6865 43.1282 37.6938 42.9662 37.7012 42.8974C37.7159 42.7771 37.7233 42.7673 37.7847 42.7673C37.8485 42.7673 37.8509 42.7599 37.8681 42.6176C37.8755 42.5341 37.8829 42.4113 37.8829 42.3475V42.2272H37.9688H38.0522L38.0596 41.8762L38.067 41.5275L38.1431 41.5202C38.2167 41.5128 38.2216 41.5054 38.2364 41.3852C38.2437 41.314 38.2511 41.1617 38.2511 41.0415V40.8279H38.337H38.4229V40.5578V40.2878H38.5064C38.5874 40.2878 38.5874 40.2853 38.6046 40.1577C38.612 40.0889 38.6193 39.9269 38.6193 39.8017V39.5758H38.7053H38.7912V39.3696C38.7912 39.2591 38.7986 39.0971 38.8059 39.0136L38.8231 38.8639H38.9041H38.9876V38.5202V38.1765H39.0711H39.1521L39.1693 38.0267C39.1766 37.9433 39.184 37.8156 39.184 37.7444V37.6118H39.2699H39.3558V37.2681V36.9244H39.4393C39.5203 36.9244 39.5203 36.922 39.5375 36.7943C39.5449 36.7256 39.5522 36.5635 39.5522 36.4383V36.2125H39.6382H39.7241V35.9424V35.6724H39.8076C39.8886 35.6724 39.8886 35.6699 39.9058 35.5423C39.9131 35.4735 39.9205 35.3115 39.9205 35.1863V34.9604H40.0064H40.0923V34.7321C40.0923 34.6094 40.0997 34.4473 40.1071 34.3762C40.1243 34.2509 40.1243 34.2485 40.2053 34.2485H40.2887V33.9048V33.5611H40.3747H40.4606V33.4187C40.4606 33.3426 40.468 33.2198 40.4753 33.1487C40.4925 33.0234 40.4925 33.021 40.5735 33.021H40.657V32.665V32.309H40.7405H40.8239L40.8411 31.9531L40.8583 31.5971H40.9418H41.0252V31.327V31.057H41.1087C41.1897 31.057 41.1897 31.0545 41.2069 30.9269C41.2143 30.8581 41.2216 30.6961 41.2216 30.5709V30.3451H41.3076H41.3935V30.129C41.3935 30.0112 41.4009 29.859 41.4082 29.7878C41.4229 29.6675 41.4279 29.6601 41.5015 29.6527L41.5776 29.6454L41.585 29.2943L41.5923 28.9457H41.6758H41.7617V28.8033C41.7617 28.7272 41.7691 28.6045 41.7765 28.5333C41.7937 28.4081 41.7937 28.4056 41.8747 28.4056H41.9581V28.0496V27.6937H42.0416H42.1251L42.1423 27.35L42.1594 27.0063H42.2429H42.3239L42.3313 26.7288L42.3387 26.4539L42.4148 26.4465C42.4884 26.4392 42.4933 26.4318 42.5081 26.3115C42.5154 26.2403 42.5228 26.0881 42.5228 25.9678V25.7542H42.6087H42.6946V25.5259C42.6946 25.4032 42.702 25.2411 42.7094 25.1699C42.7265 25.0447 42.7265 25.0423 42.8076 25.0423H42.891V24.6863V24.3303H42.977H43.0629V24.21C43.0629 24.1462 43.0702 24.0234 43.0776 23.94L43.0948 23.7902H43.1758H43.2593V23.4465V23.1028H43.3428H43.4262L43.4434 22.7469L43.4606 22.3909H43.5441H43.6275V22.1208V21.8508H43.711H43.792L43.8092 21.701C43.8166 21.6176 43.8239 21.4555 43.8239 21.3451V21.1388H43.9099H43.9958V20.9105C43.9958 20.7878 44.0031 20.6257 44.0105 20.5545C44.0277 20.4293 44.0277 20.4269 44.1087 20.4269H44.1922V20.1568V19.8868H44.2781H44.364V19.6585C44.364 19.5357 44.3714 19.3737 44.3788 19.3025C44.3959 19.1773 44.3959 19.1748 44.477 19.1748H44.5604V18.8311V18.4874H44.6439H44.7274L44.7446 18.1315L44.7617 17.7755H44.8452H44.9287V17.5914V17.4072H44.8452H44.7617L44.7446 17.2354L44.7274 17.0635H44.5457H44.364V16.9776V16.8917H44.1259C43.9933 16.8917 43.8264 16.8843 43.7576 16.877C43.6349 16.8622 43.6275 16.8549 43.6275 16.7935V16.7248L43.2617 16.7076L42.8935 16.6904L42.8861 16.6118L42.8788 16.5357L42.6038 16.5284L42.3264 16.521V16.4375V16.3516H41.9581H41.5899V16.2657V16.1797H41.3518C41.2192 16.1797 41.0522 16.1724 40.9835 16.165C40.8608 16.1503 40.8534 16.1454 40.8534 16.0791C40.8534 16.0079 40.8534 16.0079 40.7012 16.0079C40.6153 16.0079 40.4876 16.0005 40.4189 15.9932C40.2961 15.9784 40.2887 15.9711 40.2887 15.9097V15.841L39.9229 15.8238L39.5547 15.8066L39.5473 15.728L39.54 15.6519L39.1791 15.6446L38.8157 15.6372V15.5537V15.4678H38.5604C38.4205 15.4678 38.256 15.4604 38.1922 15.4531C38.0891 15.4383 38.0792 15.431 38.0792 15.3671V15.2984L37.792 15.291L37.5023 15.2837L37.495 15.2027L37.4876 15.1241H37.2716C37.1513 15.1241 36.9868 15.1167 36.9033 15.1094C36.7609 15.0922 36.7536 15.0897 36.7536 15.0259C36.7536 14.9645 36.7437 14.9572 36.6259 14.9424C36.5547 14.9351 36.3878 14.9277 36.2576 14.9277H36.0171V14.8418V14.7559H35.7347H35.4524V14.6699V14.584H35.0842H34.7159V14.4981V14.4122H34.4974C34.3796 14.4122 34.2126 14.4048 34.1292 14.3974C33.9843 14.3802 33.9794 14.3778 33.9794 14.3115C33.9794 14.2428 33.977 14.2403 33.8468 14.2403C33.7756 14.2403 33.648 14.2329 33.5645 14.2256C33.4221 14.2084 33.4148 14.2059 33.4148 14.1421C33.4148 14.0807 33.4049 14.0734 33.2871 14.0586C33.2159 14.0513 33.049 14.0439 32.9189 14.0439H32.6783V13.958V13.8721H32.31H31.9418V13.7861V13.7002H31.7036C31.5711 13.7002 31.4041 13.6928 31.3354 13.6855C31.2126 13.6707 31.2053 13.6658 31.2053 13.5996C31.2053 13.5284 31.2053 13.5284 31.0531 13.5284C30.9671 13.5284 30.8395 13.521 30.7707 13.5136L30.6406 13.4964V14.3852Z" fill="black"/>
<path d="M33.7819 18.0342C33.7819 18.1152 33.777 18.1201 33.6959 18.1201H33.6125L33.6051 18.2968L33.5977 18.4761L33.502 18.4834L33.4062 18.4908L33.4234 18.6037C33.4308 18.6651 33.4382 18.7412 33.4382 18.7731C33.4382 18.832 33.4406 18.832 33.7082 18.832H33.9783V18.7461C33.9783 18.6651 33.9832 18.6602 34.0642 18.6602H34.1477L34.155 18.481L34.1624 18.3042L34.2434 18.2968L34.322 18.2895V18.1176V17.9482H34.0519H33.7819V18.0342Z" fill="black"/>
<path d="M32.1136 19.0998V19.3699H32.0277H31.9418V19.662C31.9418 19.8216 31.9344 20.0204 31.927 20.1039L31.9099 20.2537H31.8288H31.7454V20.6096V20.9656H31.6644H31.5809L31.5662 21.2406C31.5563 21.3928 31.549 21.5867 31.549 21.6702V21.8249H31.463H31.3796L31.3722 22.1857L31.3648 22.5491L31.2887 22.5564C31.2151 22.5638 31.2102 22.5712 31.1955 22.6915C31.1881 22.7627 31.1807 22.9222 31.1807 23.045V23.2733H31.0948H31.0089V23.59C31.0089 23.7618 31.0015 23.9558 30.9941 24.0172C30.9794 24.1227 30.972 24.1301 30.9009 24.1375L30.8247 24.1448L30.8174 24.5057L30.81 24.869H30.7265H30.6406V25.4951V26.1211H30.7265H30.81L30.8174 25.7578L30.8247 25.3969L30.9009 25.3895C30.9745 25.3821 30.9794 25.3748 30.9941 25.2545C31.0015 25.1833 31.0089 25.0237 31.0089 24.8985V24.6726H31.0948H31.1807V24.3584C31.1807 24.1866 31.1881 23.9877 31.1955 23.9165C31.2126 23.7913 31.2126 23.7889 31.2937 23.7889H31.3771V23.4329V23.0769H31.463H31.549V22.7749C31.549 22.6105 31.5563 22.4165 31.5637 22.3453C31.5809 22.2201 31.5809 22.2177 31.6619 22.2177H31.7454V21.8494V21.4812H31.8313H31.9172V21.2749C31.9172 21.1645 31.9246 21.0024 31.932 20.919L31.9491 20.7692H32.0302H32.1136V20.3396V19.91H32.1971H32.2781L32.2953 19.7602C32.3027 19.6767 32.31 19.5098 32.31 19.392V19.1735H32.3959C32.477 19.1735 32.4819 19.1686 32.4819 19.0875C32.4819 19.0065 32.477 19.0016 32.3959 19.0016C32.3149 19.0016 32.31 18.9967 32.31 18.9157C32.31 18.8322 32.3076 18.8298 32.2118 18.8298H32.1136V19.0998Z" fill="black"/>
<path d="M37.5044 22.7235L37.4873 22.9076H37.4038H37.3203V23.077V23.2464L37.4995 23.2636C37.5953 23.2734 37.7205 23.2759 37.7745 23.271C37.8678 23.2636 37.8727 23.2587 37.8801 23.1703C37.8874 23.0844 37.8923 23.0795 37.9684 23.0795H38.0494L38.0642 22.8291C38.074 22.6916 38.0765 22.5762 38.074 22.5738C38.0715 22.5738 37.9463 22.5639 37.7966 22.5566L37.5216 22.5418L37.5044 22.7235Z" fill="black"/>
<path d="M34.7198 22.6474C34.7198 22.7284 34.7149 22.7333 34.6363 22.7333H34.5553L34.5381 22.9052L34.521 23.077H34.435C34.3565 23.077 34.3516 23.0819 34.3516 23.1605C34.3516 23.2415 34.354 23.2415 34.4817 23.2587C34.5504 23.2661 34.7174 23.2734 34.8499 23.2734H35.0881V23.0893V22.9052H35.1715C35.2525 22.9052 35.2525 22.9027 35.2697 22.7751C35.2967 22.5418 35.3188 22.5615 35.0021 22.5615H34.7198V22.6474Z" fill="black"/>
<path d="M45.4933 22.6904C45.4933 22.7616 45.4859 22.877 45.4786 22.9482C45.4638 23.0685 45.4589 23.0758 45.3853 23.0832L45.3092 23.0906L45.3018 23.3532L45.2944 23.6184H45.211H45.125V23.9743V24.3303H45.3092H45.4933V24.4162V24.5022H45.6774H45.8615V24.5881V24.674H46.0457H46.2298V24.8581V25.0423H46.1463H46.0628L46.0457 25.2141L46.0285 25.386H45.9475H45.8689L45.8517 25.5554C45.8345 25.7272 45.8345 25.7272 45.756 25.7346C45.6848 25.7419 45.6774 25.7493 45.67 25.8328C45.6627 25.9212 45.6578 25.9261 45.5768 25.9261H45.4933V26.0955V26.2673L45.4025 26.2747L45.3092 26.282L45.3018 26.4465L45.2944 26.6135H45.211C45.1275 26.6135 45.125 26.6159 45.125 26.7117V26.8099H45.0268H44.9286V26.994V27.1781H44.8452H44.7617L44.7445 27.35L44.7273 27.5218H44.6439C44.5653 27.5218 44.5604 27.5267 44.5604 27.6077C44.5604 27.6888 44.5555 27.6937 44.4769 27.6937H44.3935L44.3763 27.8778L44.3591 28.0619H44.2756H44.1921V28.2338V28.4056H44.0939H43.9957V28.5038C43.9957 28.5996 43.9933 28.602 43.9098 28.602H43.8263L43.819 28.7665L43.8116 28.9334L43.7208 28.9408L43.6275 28.9482V29.12V29.2894H43.5416H43.4556V29.6454V30.0014H43.5416H43.6275V29.8172V29.6331H43.711H43.7969L43.8141 29.4613L43.8313 29.2894H43.9123C43.9884 29.2894 43.9933 29.2845 44.0007 29.1961C44.008 29.1126 44.0154 29.1053 44.0866 29.0979C44.1651 29.0906 44.1651 29.0906 44.1823 28.9187L44.1995 28.7493H44.2805H44.364V28.5775V28.4056H44.4622H44.5604V28.3074C44.5604 28.2117 44.5628 28.2092 44.6463 28.2092H44.7298L44.7372 28.0423L44.7445 27.8778L44.8378 27.8704L44.9286 27.8631V27.6912V27.5218H45.0121C45.0931 27.5218 45.098 27.5169 45.1054 27.4285C45.1128 27.3426 45.1177 27.3377 45.2061 27.3303L45.2969 27.323V27.1511V26.9817H45.3804H45.4638L45.481 26.8099L45.4982 26.638H45.5817C45.6627 26.638 45.6651 26.6356 45.6651 26.5398C45.6651 26.4441 45.6676 26.4416 45.7486 26.4416H45.8345L45.8517 26.2698L45.8689 26.0979H45.9475H46.0285L46.0457 25.9261L46.0628 25.7542H46.1463C46.2273 25.7542 46.2298 25.7518 46.2298 25.656C46.2298 25.5603 46.2322 25.5578 46.3133 25.5578H46.3967L46.4139 25.386L46.4311 25.2141H46.5146C46.5931 25.2141 46.598 25.2092 46.598 25.1282C46.598 25.0447 46.6005 25.0423 46.6962 25.0423C46.792 25.0423 46.7944 25.0447 46.7944 25.1282V25.2141H46.9786H47.1627V25.3V25.386H47.3468H47.5309V25.4694V25.5529L47.7151 25.5701L47.8992 25.5873V25.6707C47.8992 25.7518 47.9016 25.7542 47.9974 25.7542C48.0907 25.7542 48.0956 25.7591 48.0956 25.8254C48.0956 25.8966 48.0956 25.8966 48.2797 25.9138L48.4638 25.931V26.0144C48.4638 26.093 48.4589 26.0979 48.3804 26.0979H48.2969L48.2797 26.282L48.2625 26.4662H48.179H48.0956V26.638V26.8099H47.9974H47.8992V26.9081C47.8992 27.0038 47.8967 27.0063 47.8133 27.0063H47.7298L47.7224 27.1707L47.7151 27.3377L47.6242 27.3451L47.5309 27.3524V27.5243V27.6937H47.4475C47.3664 27.6937 47.3615 27.6986 47.3542 27.7845C47.3468 27.8729 47.3419 27.8778 47.256 27.8852C47.1676 27.8925 47.1627 27.8974 47.1627 27.9784V28.0644L46.9736 28.057L46.7822 28.0496L46.7748 27.9735C46.7674 27.8999 46.7601 27.895 46.6398 27.8802C46.5686 27.8729 46.4483 27.8655 46.3722 27.8655H46.2298V27.9637C46.2298 28.0595 46.2273 28.0619 46.1439 28.0619H46.0579V28.2338V28.4056H45.9597H45.8615V28.5775V28.7493H45.7781H45.6971L45.6799 28.9089C45.67 28.9973 45.67 29.0807 45.6774 29.093C45.6872 29.1077 45.7314 29.1176 45.7781 29.1176C45.8566 29.1176 45.8615 29.1225 45.8615 29.2035V29.2894H46.0457H46.2298V29.3753V29.4613H46.4139H46.598V29.5472C46.598 29.6208 46.6054 29.6331 46.6545 29.6331C46.684 29.6331 46.765 29.6405 46.8362 29.6478L46.9638 29.665L46.9712 29.5693C46.9786 29.4784 46.9835 29.4735 47.0718 29.4662L47.1627 29.4588V29.287V29.1176H47.2462C47.3272 29.1176 47.3321 29.1126 47.3394 29.0243C47.3468 28.9383 47.3517 28.9334 47.4401 28.9261L47.5309 28.9187V28.7469V28.5775H47.6169C47.6979 28.5775 47.7028 28.5725 47.7028 28.4915C47.7028 28.4105 47.6979 28.4056 47.6169 28.4056H47.5309V28.2338V28.0619H47.6144H47.6979L47.7151 27.8778L47.7322 27.6937H47.8157C47.8943 27.6937 47.8992 27.6888 47.8992 27.6077C47.8992 27.5267 47.9041 27.5218 47.9826 27.5218H48.0661L48.0833 27.3377L48.1005 27.1536H48.1815H48.2625L48.2797 26.9817L48.2969 26.8099H48.3804C48.4589 26.8099 48.4638 26.805 48.4638 26.7239C48.4638 26.6429 48.4687 26.638 48.5498 26.638H48.6332L48.6406 26.4588L48.648 26.282L48.9254 26.2747L49.2003 26.2673V26.3532V26.4367L49.3844 26.4539L49.5686 26.4711V26.5545C49.5686 26.6356 49.571 26.638 49.6668 26.638C49.7625 26.638 49.765 26.6405 49.765 26.7239V26.8099H49.9491H50.1332V26.8958V26.9817H50.3173H50.5015V27.0799C50.5015 27.1757 50.5039 27.1781 50.5874 27.1781C50.666 27.1781 50.6733 27.183 50.6733 27.2518C50.6733 27.3205 50.666 27.3254 50.5874 27.3254C50.5039 27.3254 50.5015 27.3279 50.5015 27.4236C50.5015 27.5194 50.499 27.5218 50.4155 27.5218H50.3296V27.6937V27.8655H50.2314H50.1357L50.1283 28.0423L50.1209 28.2215L50.0424 28.2288C49.9687 28.2362 49.9614 28.2436 49.9614 28.3221C49.9614 28.4032 49.9589 28.4056 49.8632 28.4056H49.7674L49.7601 28.5824L49.7527 28.7616L49.6619 28.7689L49.5686 28.7763V28.9482V29.1176H49.4851C49.4041 29.1176 49.3992 29.1225 49.3918 29.2084C49.3844 29.2943 49.3771 29.3017 49.3059 29.309C49.2273 29.3164 49.2273 29.3164 49.2101 29.4883L49.193 29.6577H49.1144H49.0334L49.0162 29.8295L48.999 30.0014H48.9155C48.8345 30.0014 48.8321 30.0038 48.8321 30.0996C48.8321 30.1953 48.8296 30.1978 48.7486 30.1978H48.6651L48.648 30.3696L48.6308 30.5415H48.5473H48.4638V30.7133V30.8852H48.3656H48.2674V30.9834C48.2674 31.0791 48.265 31.0816 48.1815 31.0816H48.0956V31.2534V31.4252H47.9974H47.8992V31.5971V31.7689H47.8157C47.7347 31.7689 47.7298 31.7739 47.7224 31.8598C47.7151 31.9482 47.7101 31.9531 47.6242 31.9604L47.5309 31.9678V32.1397V32.309H47.4475H47.364L47.3468 32.4809L47.3296 32.6527H47.2462C47.1676 32.6527 47.1627 32.6577 47.1627 32.7362C47.1627 32.8172 47.1676 32.8221 47.256 32.8295C47.3394 32.8369 47.3468 32.8442 47.3542 32.9154C47.3615 32.9891 47.3689 32.9964 47.4475 32.9964H47.5309V32.8369V32.6773H47.6144C47.6954 32.6773 47.7003 32.6724 47.7077 32.584C47.7151 32.4981 47.72 32.4932 47.8083 32.4858L47.8992 32.4784V32.309V32.1397L47.9925 32.1323L48.0833 32.1249L48.0907 31.9457L48.098 31.7689H48.1815C48.2625 31.7689 48.2674 31.764 48.2674 31.683C48.2674 31.602 48.2723 31.5971 48.3509 31.5971H48.4344L48.4516 31.413L48.4687 31.2288H48.5522H48.6332L48.6406 31.0619L48.648 30.8974L48.7412 30.8901C48.8296 30.8827 48.8321 30.8802 48.8321 30.7845C48.8321 30.6912 48.8345 30.6888 48.918 30.6888H49.0015L49.0088 30.5218L49.0162 30.3573L49.1095 30.35L49.2003 30.3426V30.1707V30.0014H49.2838H49.3673L49.3844 29.8295L49.4016 29.6577H49.4851C49.5661 29.6577 49.5686 29.6552 49.5686 29.5595C49.5686 29.4637 49.571 29.4613 49.652 29.4613H49.7355L49.7527 29.2894L49.7699 29.1176H49.8509H49.9295L49.9466 28.9457L49.9638 28.7739H50.0498C50.1308 28.7739 50.1332 28.7714 50.1332 28.6757C50.1332 28.5799 50.1357 28.5775 50.2167 28.5775H50.3002L50.3173 28.4056L50.3345 28.2338H50.418H50.5015V28.0644V27.8925L50.5948 27.8852C50.6807 27.8778 50.6856 27.8729 50.693 27.7845C50.7003 27.6986 50.7052 27.6937 50.7863 27.6937H50.8697V27.5218V27.35H50.9679C51.0637 27.35 51.0661 27.3524 51.0661 27.4359V27.5218H51.2502H51.4344V27.6077V27.6937H51.6185H51.8026V27.7771V27.8606L51.9867 27.8778C52.1684 27.895 52.1709 27.895 52.1709 27.9637C52.1709 28.0275 52.1807 28.0349 52.2642 28.0423C52.3476 28.0496 52.355 28.057 52.3624 28.1282L52.3697 28.2043L52.5538 28.2215L52.7355 28.2387V28.3811C52.7355 28.4572 52.7281 28.5725 52.7208 28.6339C52.7061 28.7395 52.6987 28.7469 52.6275 28.7542C52.5588 28.7616 52.5514 28.7714 52.544 28.8524C52.5367 28.9408 52.5317 28.9457 52.4507 28.9457H52.3673V29.1176V29.2894H52.2691C52.1733 29.2894 52.1709 29.287 52.1709 29.2035V29.1176H51.9867H51.8026V29.0341V28.9506L51.6185 28.9334C51.4344 28.9162 51.4344 28.9162 51.4344 28.8451C51.4344 28.7886 51.4245 28.7739 51.3804 28.7739C51.3484 28.7739 51.265 28.7665 51.1962 28.7591L51.0661 28.7419V28.8451V28.9457H50.9679H50.8697V29.1176V29.2894H50.7863H50.7052L50.6881 29.4613L50.6709 29.6331H50.5849H50.5015V29.8172V30.0014H50.5997C50.6954 30.0014 50.6979 30.0038 50.6979 30.0873V30.1707L50.8771 30.1781L51.0538 30.1855L51.0612 30.264C51.0686 30.3352 51.0784 30.3426 51.1594 30.35C51.2404 30.3573 51.2502 30.3647 51.2576 30.4334C51.265 30.5071 51.2723 30.512 51.3926 30.5267C51.4638 30.5341 51.5841 30.5415 51.6627 30.5415H51.8026V30.4433C51.8026 30.3475 51.8051 30.3451 51.8861 30.3451H51.9696L51.9867 30.1732L52.0039 30.0014H52.0874C52.166 30.0014 52.1709 29.9964 52.1709 29.9154C52.1709 29.832 52.1733 29.8295 52.2691 29.8295C52.3648 29.8295 52.3673 29.827 52.3673 29.7436C52.3673 29.6626 52.3722 29.6577 52.4532 29.6577C52.5367 29.6577 52.5391 29.6552 52.5391 29.5595C52.5391 29.4637 52.5416 29.4613 52.6226 29.4613H52.7061L52.7232 29.2894L52.7404 29.1176H52.8214H52.9L52.9172 28.9457L52.9344 28.7739H53.0203C53.1013 28.7739 53.1038 28.7714 53.1038 28.6757V28.5775H53.2879H53.472V28.6609V28.7444L53.6561 28.7616C53.8378 28.7788 53.8403 28.7788 53.8403 28.8475C53.8403 28.9162 53.8427 28.9162 54.0244 28.9334L54.2085 28.9506V29.0341C54.2085 29.1151 54.211 29.1176 54.3067 29.1176C54.4025 29.1176 54.4049 29.12 54.4049 29.2035V29.2894H54.589H54.7732V29.3753C54.7732 29.4588 54.7756 29.4613 54.8714 29.4613C54.9818 29.4613 54.9843 29.4686 54.9548 29.692C54.9401 29.8 54.9352 29.805 54.8566 29.805C54.7756 29.805 54.7732 29.8074 54.7732 29.9032C54.7732 29.9989 54.7707 30.0014 54.6872 30.0014H54.6038L54.5964 30.1781L54.589 30.3573L54.4982 30.3647L54.4049 30.3721V30.5439V30.7133H54.3214C54.2404 30.7133 54.2355 30.7182 54.2281 30.8041C54.2208 30.8925 54.2159 30.8974 54.1299 30.9048L54.0391 30.9122L54.0317 31.0766L54.0244 31.2411L53.9335 31.2485L53.8403 31.2559V31.4277V31.5971H53.7568C53.6758 31.5971 53.6709 31.602 53.6635 31.6879C53.6561 31.7739 53.6488 31.7812 53.5776 31.7886C53.499 31.796 53.499 31.796 53.4818 31.9678L53.4646 32.1372H53.3861H53.3051L53.2879 32.309L53.2707 32.4809H53.1872C53.1062 32.4809 53.1038 32.4834 53.1038 32.5791C53.1038 32.6748 53.1013 32.6773 53.0203 32.6773H52.9368L52.9196 32.8491L52.9025 33.021H52.819H52.7355V33.1928V33.3647H52.6373H52.5391V33.4629C52.5391 33.5586 52.5367 33.5611 52.4532 33.5611H52.3673V33.7329V33.9048H52.2691H52.1709V34.0766V34.2485H52.0874C52.0064 34.2485 52.0015 34.2534 51.9941 34.3393C51.9867 34.4277 51.9818 34.4326 51.8959 34.44L51.8026 34.4473V34.6192V34.7886H51.7191H51.6357L51.6185 34.9604L51.6013 35.1323H51.5178C51.4368 35.1323 51.4344 35.1347 51.4344 35.2305C51.4344 35.3262 51.4319 35.3287 51.3509 35.3287H51.2674L51.2502 35.5005L51.2331 35.6724H51.1496H51.0661V35.8418V36.0136L50.9753 36.021C50.8869 36.0284 50.882 36.0333 50.8746 36.1192C50.8673 36.2076 50.8624 36.2125 50.7813 36.2125H50.6979V36.3843V36.5562H50.5997H50.5015V36.7403V36.9244H50.4155C50.3345 36.9244 50.3296 36.9293 50.3296 37.0104C50.3296 37.0938 50.3272 37.0963 50.2314 37.0963H50.1332V37.2681V37.44H50.0498H49.9663L49.9491 37.6241L49.9319 37.8082H49.8484C49.7699 37.8082 49.765 37.8131 49.765 37.8942C49.765 37.9752 49.7601 37.9801 49.6815 37.9801H49.598L49.5808 38.1642L49.5637 38.3483H49.4802H49.3992L49.3918 38.5128L49.3844 38.6798L49.2936 38.6871C49.2052 38.6945 49.2003 38.6994 49.2003 38.7804C49.2003 38.859 49.1954 38.8639 49.1144 38.8639H49.0309L49.0236 39.0406L49.0162 39.2198L48.9254 39.2272L48.8321 39.2346V39.4064V39.5758H48.7486C48.6676 39.5758 48.6627 39.5807 48.6553 39.6667C48.648 39.755 48.643 39.7599 48.5571 39.7673L48.4638 39.7747V39.9465V40.1159H48.3804H48.2969L48.2797 40.2878L48.2625 40.4596H48.179C48.098 40.4596 48.0956 40.4621 48.0956 40.5578C48.0956 40.6536 48.0931 40.656 48.0121 40.656H47.9262L47.909 40.8279L47.8918 40.9997H47.8108H47.7273V41.1716V41.3434H47.6291H47.5309V41.4416C47.5309 41.5374 47.5285 41.5398 47.4475 41.5398H47.364L47.3468 41.7117L47.3296 41.8835H47.2462H47.1627V42.0529V42.2248L47.0718 42.2321C46.9835 42.2395 46.9786 42.2444 46.9712 42.3303C46.9638 42.4187 46.9589 42.4236 46.8779 42.4236H46.7944V42.5955V42.7673H46.6962H46.598V42.9392V43.111H46.5121C46.4286 43.111 46.4262 43.1135 46.4262 43.2092V43.3074H46.328H46.2298V43.4793V43.6511H46.1463H46.0653L46.0481 43.823L46.0309 43.9948H45.9499H45.8689L45.8517 44.1642C45.8345 44.3361 45.8345 44.3361 45.756 44.3434C45.6848 44.3508 45.6774 44.3581 45.67 44.4416C45.6627 44.53 45.6578 44.5349 45.5768 44.5349H45.4933V44.7043V44.8762L45.4025 44.8835L45.3092 44.8909L45.3018 45.0676L45.2944 45.2469H45.211C45.1299 45.2469 45.125 45.2518 45.125 45.3303C45.125 45.4113 45.1201 45.4162 45.0342 45.4236L44.9409 45.431L44.9335 45.6077L44.9262 45.787H44.8452H44.7617L44.7445 45.9588L44.7273 46.1307H44.6439C44.5628 46.1307 44.5604 46.1331 44.5604 46.2289C44.5604 46.3246 44.5579 46.3271 44.4769 46.3271H44.3935L44.3763 46.4989L44.3591 46.6707H44.2781H44.1971L44.1799 46.8426L44.1627 47.0144H44.0792C43.9982 47.0144 43.9957 47.0169 43.9957 47.1126C43.9957 47.2084 43.9933 47.2108 43.9098 47.2108H43.8239V47.3827V47.5545H43.7257H43.6275V47.7264V47.8982H43.544C43.463 47.8982 43.4581 47.9032 43.4507 47.9891C43.4434 48.0775 43.4385 48.0824 43.3525 48.0897L43.2592 48.0971V48.2689V48.4383H43.1758H43.0923L43.0751 48.6102L43.0579 48.782H42.9745C42.8935 48.782 42.891 48.7845 42.891 48.8802C42.891 48.976 42.8885 48.9784 42.8075 48.9784H42.7241L42.7069 49.1503L42.6897 49.3221H42.6087H42.5301L42.5129 49.494L42.4957 49.6658H42.4098C42.3288 49.6658 42.3263 49.6683 42.3263 49.764C42.3263 49.8598 42.3239 49.8622 42.2404 49.8622H42.1545V50.0341V50.2059H42.0563H41.9581V50.3778V50.5496H41.8722C41.7887 50.5496 41.7862 50.5521 41.7862 50.6478V50.746H41.6881H41.5899V50.9179V51.0897H41.5064H41.4229L41.4057 51.2616L41.3885 51.4334H41.3051C41.2241 51.4334 41.2216 51.4359 41.2216 51.5316C41.2216 51.6274 41.2191 51.6298 41.1381 51.6298H41.0547L41.0375 51.8017L41.0203 51.9735H40.9393H40.8583L40.8411 52.1577L40.8239 52.3418H40.7404C40.6619 52.3418 40.657 52.3467 40.657 52.4277V52.5136H39.454H38.2511V52.3418V52.1699H38.3345H38.418L38.4352 51.9858L38.4524 51.8017H38.5358C38.6144 51.8017 38.6193 51.7968 38.6193 51.7158C38.6193 51.6347 38.6242 51.6298 38.7052 51.6298H38.7887L38.7961 51.4506L38.8034 51.2739L38.8967 51.2665L38.9876 51.2591V51.0873V50.9179H39.071C39.152 50.9179 39.157 50.913 39.1643 50.8246C39.1717 50.7387 39.1766 50.7338 39.265 50.7264L39.3558 50.719V50.5472V50.3778H39.454H39.5522V50.2059V50.0341H39.6357C39.7167 50.0341 39.7216 50.0292 39.729 49.9433C39.7363 49.8573 39.7437 49.85 39.8149 49.8426C39.8935 49.8352 39.8935 49.8352 39.9106 49.6634L39.9278 49.494H40.0064H40.0874L40.1046 49.3221L40.1218 49.1503H40.2052C40.2862 49.1503 40.2887 49.1478 40.2887 49.0521C40.2887 48.9563 40.2912 48.9539 40.3746 48.9539H40.4581L40.4655 48.787L40.4728 48.6225L40.5661 48.6151L40.657 48.6077V48.4359V48.2665H40.7404C40.8214 48.2665 40.8263 48.2616 40.8337 48.1732C40.8411 48.0873 40.846 48.0824 40.9344 48.075L41.0252 48.0676V47.8958V47.7264H41.1234H41.2216V47.5545V47.3827H41.3075C41.391 47.3827 41.3935 47.3802 41.3935 47.2845C41.3935 47.1888 41.3959 47.1863 41.4769 47.1863H41.5628L41.58 47.0144L41.5972 46.8426H41.6758H41.7568L41.774 46.6707L41.7912 46.4989H41.8746C41.9556 46.4989 41.9581 46.4964 41.9581 46.4007C41.9581 46.305 41.9606 46.3025 42.0416 46.3025H42.125L42.1422 46.1307L42.1594 45.9588H42.2429H42.3263V45.7894V45.6176L42.4196 45.6102C42.5056 45.6028 42.5105 45.5979 42.5178 45.5095C42.5252 45.4236 42.5301 45.4187 42.6111 45.4187H42.6946V45.2493V45.0775L42.7879 45.0701L42.8787 45.0627L42.8861 44.7976L42.8935 44.5349H42.7928C42.6971 44.5349 42.6946 44.5374 42.6946 44.6208C42.6946 44.7018 42.6897 44.7068 42.6087 44.7068C42.5252 44.7068 42.5227 44.7092 42.5227 44.805V44.9032H42.4245H42.3263V45.075V45.2469H42.2429H42.1594L42.1422 45.4187L42.125 45.5906H42.0416C41.9606 45.5906 41.9581 45.593 41.9581 45.6888C41.9581 45.7845 41.9556 45.787 41.8746 45.787H41.7912L41.774 45.9588L41.7568 46.1307H41.6733H41.5899V46.3V46.4719L41.499 46.4793C41.4106 46.4866 41.4057 46.4915 41.3984 46.5775C41.391 46.6658 41.3861 46.6707 41.3051 46.6707H41.2216V46.8401V47.012L41.1308 47.0194L41.0375 47.0267L41.0301 47.1912L41.0227 47.3581H40.9393C40.8558 47.3581 40.8534 47.3606 40.8534 47.4563V47.5545H40.7552H40.657V47.7264V47.8982H40.5735H40.4925L40.4753 48.0701L40.4581 48.2419H40.3722C40.2912 48.2419 40.2887 48.2444 40.2887 48.3401C40.2887 48.4359 40.2862 48.4383 40.2052 48.4383H40.1218L40.1046 48.6102L40.0874 48.782H40.0039H39.9229L39.9155 48.9588L39.9082 49.138L39.8173 49.1454C39.729 49.1527 39.7241 49.1577 39.7241 49.2387C39.7241 49.3172 39.7191 49.3221 39.6381 49.3221H39.5547L39.5473 49.4989L39.5399 49.6781L39.4491 49.6855L39.3558 49.6928V49.8647V50.0341H39.2699C39.1889 50.0341 39.184 50.039 39.184 50.12C39.184 50.2035 39.1815 50.2059 39.0858 50.2059H38.9876V50.3901V50.5742H38.9041H38.8206L38.8034 50.746L38.7862 50.9179H38.7052C38.6267 50.9179 38.6218 50.9228 38.6144 51.0087C38.607 51.0922 38.5997 51.102 38.5285 51.1094C38.4524 51.1167 38.4524 51.1192 38.4352 51.2886L38.418 51.458H38.337H38.256L38.2388 51.6298L38.2216 51.8017H38.1381C38.0571 51.8017 38.0547 51.8041 38.0547 51.8999C38.0547 51.9956 38.0522 51.9981 37.9687 51.9981H37.8853L37.8779 52.1626L37.8705 52.3295L37.7797 52.3369C37.6913 52.3442 37.6864 52.3491 37.6864 52.4302V52.5136H37.22H36.7535V52.6855V52.8573H36.6676H36.5817V52.9973C36.5817 53.0758 36.5743 53.1961 36.5669 53.2673C36.5522 53.3876 36.5473 53.395 36.4736 53.4023L36.3975 53.4097L36.3902 53.7583L36.3828 54.1094H38.9876H41.5899V54.0235V53.9375H41.774H41.9581V53.7657V53.5938H42.0416C42.1226 53.5938 42.1275 53.5889 42.1349 53.5005C42.1422 53.4146 42.1471 53.4097 42.2355 53.4023L42.3263 53.395V53.2256V53.0562L42.4196 53.0488L42.5105 53.0415L42.5178 52.8622L42.5252 52.6855H42.6087C42.6897 52.6855 42.6946 52.6806 42.6946 52.5996C42.6946 52.5185 42.6995 52.5136 42.7781 52.5136H42.8615L42.8787 52.3418L42.8959 52.1699H42.9769H43.0579L43.0751 51.9858L43.0923 51.8017H43.1758C43.2543 51.8017 43.2592 51.7968 43.2592 51.7158C43.2592 51.6347 43.2642 51.6298 43.3427 51.6298H43.4262L43.4434 51.4457L43.4606 51.2616H43.544H43.6275V51.0897V50.9179H43.7257H43.8239V50.8197C43.8239 50.7239 43.8263 50.7215 43.9098 50.7215H43.9957V50.5496V50.3778H44.0939H44.1921V50.2059V50.0341H44.2756C44.3566 50.0341 44.3615 50.0292 44.3689 49.9408C44.3763 49.8549 44.3812 49.85 44.4696 49.8426L44.5604 49.8352V49.6634V49.494H44.6439H44.7273L44.7445 49.3221L44.7617 49.1503H44.8452C44.9262 49.1503 44.9286 49.1478 44.9286 49.0521C44.9286 48.9563 44.9311 48.9539 45.0121 48.9539H45.0956L45.1128 48.782L45.1299 48.6102H45.2134H45.2969V48.4408V48.2689L45.3902 48.2616C45.4761 48.2542 45.481 48.2493 45.4884 48.1609C45.4957 48.075 45.5007 48.0701 45.5817 48.0701H45.6651V47.8982V47.7264H45.7633H45.8615V47.5545V47.3827H45.9475C46.0309 47.3827 46.0334 47.3802 46.0334 47.2845V47.1863H46.1316H46.2298V47.0144V46.8426H46.3133H46.3967L46.4139 46.6707L46.4311 46.4989H46.5146C46.5956 46.4989 46.598 46.4964 46.598 46.4007C46.598 46.305 46.6005 46.3025 46.6815 46.3025H46.765L46.7822 46.1307L46.7993 45.9588H46.8828H46.9663V45.7894V45.6176L47.0596 45.6102C47.1455 45.6028 47.1504 45.5979 47.1578 45.5095C47.1651 45.4236 47.17 45.4187 47.2511 45.4187H47.3345V45.2469V45.075H47.4327H47.5309V44.8909V44.7068H47.6144C47.693 44.7068 47.7003 44.6994 47.7077 44.6257C47.7151 44.5545 47.7224 44.5472 47.8059 44.5398L47.8967 44.5325L47.9041 44.3557L47.9115 44.1789L47.99 44.1716C48.0686 44.1642 48.0686 44.1642 48.0858 43.9924L48.1029 43.823H48.184C48.2625 43.823 48.2674 43.818 48.2674 43.737C48.2674 43.656 48.2723 43.6511 48.3509 43.6511H48.4344L48.4516 43.467L48.4687 43.2829H48.5522H48.6332L48.6406 43.1159L48.648 42.9514L48.7412 42.9441C48.8296 42.9367 48.8321 42.9343 48.8321 42.8385C48.8321 42.7452 48.8345 42.7428 48.918 42.7428H49.0015L49.0088 42.5758L49.0162 42.4113L49.1095 42.404L49.2003 42.3966V42.2248V42.0554H49.2838C49.3648 42.0554 49.3697 42.0505 49.3771 41.9621C49.3844 41.8762 49.3894 41.8712 49.4777 41.8639L49.5686 41.8565V41.6847V41.5153H49.652H49.7355L49.7527 41.3434L49.7699 41.1716H49.8509C49.9295 41.1716 49.9344 41.1667 49.9417 41.0783C49.9491 40.9948 49.9565 40.9874 50.0277 40.9801C50.1062 40.9727 50.1062 40.9727 50.1234 40.8009L50.1406 40.6315H50.2191H50.3002L50.3173 40.4596L50.3345 40.2878H50.418H50.5015V40.1184V39.9465L50.5948 39.9392C50.6807 39.9318 50.6856 39.9269 50.693 39.8385C50.7003 39.7526 50.7052 39.7477 50.7863 39.7477H50.8697V39.5783V39.4064L50.963 39.3991L51.0538 39.3917L51.0612 39.2248L51.0686 39.0603H51.152C51.2355 39.0603 51.238 39.0578 51.238 38.9621V38.8639H51.3362H51.4344V38.692V38.5202H51.5178H51.5989L51.616 38.3483L51.6332 38.1765H51.7191C51.8002 38.1765 51.8026 38.174 51.8026 38.0783C51.8026 37.9825 51.8051 37.9801 51.8861 37.9801H51.9671L51.9843 37.8082L52.0015 37.6364H52.0825H52.166L52.1831 37.4523L52.2003 37.2681H52.2838C52.3624 37.2681 52.3673 37.2632 52.3673 37.1822C52.3673 37.1012 52.3722 37.0963 52.4532 37.0963H52.5367L52.544 36.9171L52.5514 36.7403L52.6447 36.7329L52.7355 36.7256V36.5537V36.3843H52.8214C52.9025 36.3843 52.9074 36.3794 52.9074 36.2984C52.9074 36.2149 52.9098 36.2125 53.0056 36.2125H53.1038V36.0284V35.8442H53.1872H53.2707L53.2879 35.6724L53.3051 35.5005H53.3885C53.4696 35.5005 53.472 35.4981 53.472 35.4023C53.472 35.3066 53.4745 35.3041 53.5555 35.3041H53.639L53.6561 35.1323L53.6733 34.9604H53.7543H53.8354L53.8525 34.7886L53.8697 34.6167H53.9532C54.0342 34.6167 54.0367 34.6143 54.0367 34.5185C54.0367 34.4228 54.0391 34.4203 54.1226 34.4203H54.2061L54.2134 34.2534L54.2208 34.0889L54.3141 34.0816L54.4049 34.0742V33.9023V33.7329H54.4884C54.5694 33.7329 54.5743 33.728 54.5817 33.6397C54.589 33.5537 54.5939 33.5488 54.6823 33.5415L54.7732 33.5341V33.3622V33.1928H54.8566H54.9401L54.9573 33.021L54.9745 32.8491H55.0579C55.139 32.8491 55.1414 32.8467 55.1414 32.7509C55.1414 32.6552 55.1439 32.6527 55.2249 32.6527H55.3083L55.3255 32.4809L55.3427 32.309H55.4237H55.5023L55.5195 32.1372L55.5367 31.9653H55.6226C55.7036 31.9653 55.7061 31.9629 55.7061 31.8671C55.7061 31.7714 55.7085 31.7689 55.792 31.7689H55.8779V31.5971V31.4252H55.9761H56.0743V31.2534V31.0816H56.1602C56.2437 31.0816 56.2462 31.0791 56.2462 30.9834V30.8852H56.3444H56.4426V30.7133V30.5415H56.526H56.6095L56.6267 30.3696L56.6439 30.1978H56.7273C56.8083 30.1978 56.8108 30.1953 56.8108 30.0996C56.8108 30.0038 56.8133 30.0014 56.8943 30.0014H56.9777L56.9949 29.8172L57.0121 29.6331H57.0931H57.1741L57.1913 29.4613C57.2085 29.2919 57.2085 29.2894 57.2797 29.2894H57.3509V29.1176V28.9457H57.2797C57.211 28.9457 57.2085 28.9433 57.1913 28.7763L57.1741 28.6069L57.0047 28.5897L56.8354 28.5725V28.4891C56.8354 28.4056 56.8354 28.4056 56.7249 28.4056C56.6144 28.4056 56.6144 28.4056 56.6144 28.3197V28.2338H56.4303H56.2462V28.1478V28.0644L56.0694 28.057L55.8902 28.0496L55.8828 27.9711L55.8754 27.895L55.6913 27.8778L55.5097 27.8606V27.7771V27.6937H55.3255H55.1414V27.6077C55.1414 27.5243 55.139 27.5218 55.0432 27.5218C54.9475 27.5218 54.945 27.5194 54.945 27.4359V27.3524L54.7682 27.3451L54.589 27.3377L54.5817 27.2591L54.5743 27.1806L54.3975 27.1732L54.2208 27.1658L54.2134 27.0725L54.2061 26.9817H54.0219H53.8403V26.8958V26.8099H53.6561H53.472V26.7239C53.472 26.6405 53.4696 26.638 53.3738 26.638C53.2781 26.638 53.2756 26.6356 53.2756 26.5521V26.4686L53.0989 26.4613L52.9196 26.4539L52.9123 26.3753L52.9049 26.2992L52.7208 26.282L52.5391 26.2649V26.1814V26.0979H52.355H52.1709V26.012V25.9261H51.9867H51.8026V25.8401C51.8026 25.7567 51.8002 25.7542 51.7044 25.7542C51.6087 25.7542 51.6062 25.7518 51.6062 25.6683V25.5848L51.4295 25.5775L51.2502 25.5701L51.2429 25.4915L51.2355 25.4154L51.0514 25.3982L50.8697 25.3811V25.2976V25.2141H50.6856H50.5015V25.1306V25.0472L50.3173 25.03C50.1332 25.0128 50.1332 25.0128 50.1332 24.9416C50.1332 24.8753 50.1283 24.8704 50.035 24.8704C49.9393 24.8704 49.9368 24.868 49.9368 24.787V24.7035L49.7527 24.6863L49.5686 24.6691V24.5856V24.5022H49.3844H49.2003V24.4162V24.3303H49.0162H48.8321V24.2469V24.1634L48.648 24.1462C48.4638 24.129 48.4638 24.129 48.4638 24.0578C48.4638 23.9915 48.4589 23.9866 48.3656 23.9866C48.2699 23.9866 48.2674 23.9842 48.2674 23.9032V23.8197L48.0833 23.8025L47.8992 23.7853V23.7018V23.6184H47.7151H47.5309V23.5324V23.4465H47.3468H47.1627V23.3606C47.1627 23.2771 47.1602 23.2747 47.0645 23.2747C46.9687 23.2747 46.9663 23.2722 46.9663 23.1912V23.1077L46.7822 23.0906L46.598 23.0734V22.9899V22.9064H46.4139H46.2298V22.8205V22.7346H46.0457H45.8615V22.6487V22.5627H45.6774H45.4933V22.6904Z" fill="black"/>
<path d="M33.9794 23.5319C33.9794 23.6129 33.9745 23.6178 33.8959 23.6178C33.8149 23.6178 33.8149 23.6203 33.7977 23.7455C33.7904 23.8167 33.783 23.9787 33.783 24.1014V24.3298H33.6971H33.6112V24.4697C33.6112 24.5483 33.6038 24.671 33.5964 24.7397C33.5793 24.8674 33.5793 24.8699 33.4982 24.8699H33.4148V25.2136V25.5573H33.3288H33.2429V25.6972C33.2429 25.7758 33.2356 25.8985 33.2282 25.9672C33.211 26.0949 33.211 26.0974 33.13 26.0974H33.0465V26.4533V26.8093H32.963C32.882 26.8093 32.882 26.8118 32.8648 26.937C32.8575 27.0082 32.8501 27.1309 32.8501 27.207V27.3494H32.7642H32.6783V27.5802C32.6783 27.7054 32.6709 27.86 32.6635 27.9214C32.6488 28.027 32.6414 28.0343 32.5702 28.0417L32.4941 28.0491L32.4868 28.3118L32.4794 28.5769H32.3959H32.31V28.8469V29.117H32.2265C32.1455 29.117 32.1455 29.1195 32.1284 29.2447C32.121 29.3159 32.1136 29.4779 32.1136 29.6006V29.8289H32.0277H31.9418V29.9689C31.9418 30.0474 31.9344 30.1702 31.927 30.2389C31.9099 30.3666 31.9099 30.369 31.8288 30.369H31.7454V30.7127V31.0564H31.6594H31.5735V31.1767C31.5735 31.2406 31.5662 31.3633 31.5588 31.4468L31.5416 31.5965H31.4606H31.3796L31.3722 31.9451L31.3648 32.2962L31.2887 32.3036C31.2151 32.3109 31.2102 32.3183 31.1955 32.4386C31.1881 32.5098 31.1807 32.6301 31.1807 32.7062V32.8486H31.0948H31.0089V33.0794C31.0089 33.2046 31.0015 33.3592 30.9941 33.4231C30.9794 33.5311 30.9745 33.536 30.8959 33.536H30.8125V33.806V34.0761H30.7265H30.6406V34.7021V35.3281H30.7265H30.8125V35.0581V34.788H30.8959C30.977 34.788 30.977 34.7856 30.9941 34.6579C31.0015 34.5892 31.0089 34.4664 31.0089 34.3879V34.2479H31.0948H31.1807V34.0172C31.1807 33.892 31.1881 33.7373 31.1955 33.6759C31.2102 33.5704 31.2175 33.563 31.2887 33.5556L31.3648 33.5483L31.3722 33.2831L31.3796 33.0204H31.463H31.549V32.7921C31.549 32.6694 31.5563 32.5073 31.5637 32.4361C31.5809 32.3109 31.5809 32.3085 31.6619 32.3085H31.7454V32.0384V31.7684H31.8313H31.9172V31.5523C31.9172 31.4345 31.9246 31.2798 31.932 31.2086C31.9491 31.0834 31.9491 31.081 32.0302 31.081H32.1136V30.8109V30.5409H32.1971C32.2781 30.5409 32.2781 30.5384 32.2953 30.4108C32.3027 30.342 32.31 30.18 32.31 30.0548V29.8289H32.3959H32.4819V29.6866C32.4819 29.6104 32.4892 29.4877 32.4966 29.4165C32.5138 29.2913 32.5138 29.2888 32.5948 29.2888H32.6783V29.0188V28.7487H32.7642H32.8501V28.5327C32.8501 28.4149 32.8575 28.2602 32.8648 28.189C32.882 28.0638 32.882 28.0613 32.963 28.0613H33.0465V27.7913V27.5213H33.1324H33.2184V27.315C33.2184 27.2046 33.2257 27.0425 33.2331 26.9591L33.2503 26.8093H33.3313H33.4148V26.5393V26.2692H33.4982H33.5817L33.5989 25.9255L33.6161 25.5818H33.6995H33.783V25.3118V25.0417H33.8665C33.9475 25.0417 33.9475 25.0393 33.9647 24.9116C33.972 24.8429 33.9794 24.6808 33.9794 24.5556V24.3298H34.0653H34.1513V24.1874C34.1513 24.1113 34.1586 23.9885 34.166 23.9173C34.1832 23.7921 34.1832 23.7897 34.2642 23.7897H34.3477V23.6178V23.446H34.1635H33.9794V23.5319Z" fill="black"/>
<path d="M36.7553 23.7038V23.9616H36.6694H36.5835V24.1875C36.5835 24.3127 36.5761 24.4747 36.5687 24.5434C36.5515 24.6711 36.5515 24.6736 36.4705 24.6736H36.3871V24.9436V25.2137H36.3011H36.2152V25.4199C36.2152 25.5304 36.2078 25.6924 36.2005 25.7759L36.1833 25.9256H36.1023H36.0188V26.1957V26.4657H35.9353H35.8519L35.8347 26.8094L35.8175 27.1531H35.734H35.6506V27.4232V27.6932H35.5671H35.4861L35.4689 27.843C35.4615 27.9264 35.4542 28.0885 35.4542 28.1989V28.4051H35.3682H35.2823V28.6359C35.2823 28.7611 35.2749 28.9158 35.2676 28.9772C35.2529 29.0827 35.2455 29.0901 35.1743 29.0975L35.0982 29.1048L35.0908 29.3798L35.0835 29.6572H35H34.9141V29.8708C34.9141 29.9911 34.9067 30.1457 34.8993 30.2145C34.8821 30.3421 34.8821 30.3446 34.8011 30.3446H34.7177V30.6146V30.8847H34.6317H34.5458V31.1106C34.5458 31.2358 34.5384 31.3978 34.5311 31.4665C34.5139 31.5942 34.5139 31.5966 34.4329 31.5966H34.3494V31.8667V32.1367H34.2659H34.1825L34.1653 32.4804L34.1481 32.8241H34.0646H33.9812V33.05C33.9812 33.1752 33.9738 33.3348 33.9664 33.406C33.9517 33.5263 33.9468 33.5336 33.8731 33.541L33.797 33.5484L33.7897 33.811L33.7823 34.0762H33.6988H33.6129V34.302C33.6129 34.4272 33.6056 34.5893 33.5982 34.658C33.581 34.7857 33.581 34.7881 33.4975 34.7881C33.4165 34.7881 33.4141 34.7906 33.4214 34.879C33.4288 34.9649 33.4362 34.9723 33.5074 34.9796C33.5761 34.987 33.5859 34.9968 33.5933 35.0655C33.6006 35.1367 33.608 35.1441 33.6939 35.1515C33.7774 35.1588 33.7848 35.1662 33.7848 35.2325C33.7848 35.2988 33.7774 35.3037 33.6988 35.3037H33.6129V35.4853V35.6695L33.5221 35.6768L33.4288 35.6842L33.4214 35.8487L33.4141 36.0156H33.6988H33.9812V35.942C33.9812 35.8732 33.9885 35.8683 34.0671 35.8683H34.153V35.6842V35.5001H34.2512C34.347 35.5001 34.3494 35.4976 34.3494 35.4166C34.3494 35.3356 34.3445 35.3307 34.2586 35.3233C34.1751 35.316 34.1653 35.3086 34.1579 35.2398L34.1506 35.1613L33.964 35.1441L33.7774 35.1269L33.7946 35.0017C33.802 34.9305 33.8093 34.8544 33.8093 34.8299C33.8093 34.7979 33.829 34.7881 33.8952 34.7881H33.9812V34.5181V34.248H34.0671H34.153V34.032C34.153 33.9142 34.1604 33.7619 34.1677 33.6907C34.1825 33.5705 34.1874 33.5631 34.261 33.5557L34.3371 33.5484L34.3445 33.2709L34.3519 32.996H34.4353H34.5213V32.7799C34.5213 32.6621 34.5286 32.5074 34.536 32.4362C34.5532 32.311 34.5532 32.3086 34.6342 32.3086H34.7177V31.9526V31.5966H34.8011C34.8821 31.5966 34.8821 31.5942 34.8993 31.4665C34.9067 31.3978 34.9141 31.275 34.9141 31.1965V31.0565H35H35.0859V30.8258C35.0859 30.7006 35.0933 30.5459 35.1006 30.4845C35.1154 30.379 35.1227 30.3716 35.1939 30.3642L35.27 30.3569L35.2774 30.0917L35.2848 29.829H35.3682H35.4542V29.6007C35.4542 29.478 35.4615 29.316 35.4689 29.2448C35.4861 29.1196 35.4861 29.1171 35.5671 29.1171H35.6506V28.847V28.577H35.7365H35.8224V28.3462C35.8224 28.221 35.8298 28.0664 35.8371 28.0025C35.8519 27.8945 35.8568 27.8896 35.9353 27.8896H36.0188V27.5336V27.1777H36.1047H36.1907V27.0353C36.1907 26.9592 36.198 26.8364 36.2054 26.7652C36.2226 26.64 36.2226 26.6376 36.3036 26.6376H36.3871V26.4092C36.3871 26.2865 36.3944 26.1245 36.4018 26.0533C36.4165 25.933 36.4214 25.9256 36.4877 25.9256C36.5565 25.9256 36.5589 25.9207 36.5589 25.8053C36.5589 25.7415 36.5663 25.6187 36.5736 25.5353L36.5908 25.3855H36.6718H36.7553V25.1547C36.7553 25.0295 36.7627 24.8749 36.77 24.811C36.7848 24.7079 36.7921 24.6981 36.8535 24.6981C36.9173 24.6981 36.9198 24.6907 36.937 24.5484C36.9443 24.4649 36.9517 24.3372 36.9517 24.266V24.1335H37.0376H37.1236V23.9174C37.1236 23.7996 37.1309 23.6449 37.1383 23.5737L37.1555 23.4461H36.9542H36.7553V23.7038Z" fill="black"/>
<path d="M38.25 27.3393V27.5234H38.3359H38.4218V27.3393V27.1552H38.3359H38.25V27.3393Z" fill="black"/>
<path d="M37.7061 28.0024C37.6987 28.0662 37.6914 28.2209 37.6914 28.3461V28.5768H37.6054H37.5195V28.7168C37.5195 28.7953 37.5121 28.9181 37.5048 28.9868C37.4876 29.1145 37.4876 29.1169 37.4066 29.1169H37.3256L37.3182 29.4655L37.3108 29.8166L37.2323 29.824C37.1537 29.8313 37.1513 29.8338 37.1513 29.9492C37.1513 30.0155 37.1439 30.1358 37.1365 30.2192L37.1193 30.369H37.0383H36.9549V30.5826C36.9549 30.7029 36.9475 30.8575 36.9401 30.9263C36.9254 31.0466 36.918 31.0564 36.8567 31.0564C36.7953 31.0564 36.7879 31.0662 36.7732 31.184C36.7658 31.2552 36.7585 31.378 36.7585 31.4541V31.5965H36.6725H36.5866V31.8101C36.5866 31.9304 36.5792 32.0826 36.5719 32.1538C36.5572 32.2741 36.5522 32.2814 36.4786 32.2888L36.4025 32.2961L36.3951 32.5588L36.3878 32.824H36.3043H36.2184V32.9565C36.2184 33.0277 36.211 33.1554 36.2036 33.2389L36.1864 33.3886H36.1054H36.022V33.7323V34.076H35.936H35.8501V34.1963C35.8501 34.2601 35.8427 34.3829 35.8354 34.4664L35.8182 34.6161H35.7372H35.6537V34.9598V35.3035H35.5702C35.4892 35.3035 35.4892 35.306 35.472 35.4312C35.4647 35.5024 35.4573 35.6251 35.4573 35.7012V35.8436H35.3714H35.2855V36.0695C35.2855 36.1947 35.2781 36.3567 35.2707 36.4254C35.2535 36.5531 35.2535 36.5556 35.1725 36.5556H35.0891V36.8256V37.0957H35.0031H34.9172V37.3092C34.9172 37.4295 34.9099 37.5842 34.9025 37.6529C34.8853 37.7806 34.8853 37.7831 34.8043 37.7831H34.7208V38.0531V38.3232H34.6349H34.549V38.4631C34.549 38.5416 34.5416 38.6644 34.5342 38.7331C34.5171 38.8608 34.5171 38.8632 34.436 38.8632H34.3526V39.2192V39.5752H34.2666H34.1807V39.6955C34.1807 39.7593 34.1734 39.8821 34.166 39.9655L34.1488 40.1153H34.0678H33.9843V40.3461C33.9843 40.4713 33.977 40.6259 33.9696 40.6898C33.9549 40.7929 33.9475 40.8027 33.8861 40.8027C33.8247 40.8027 33.8174 40.8125 33.8026 40.9304C33.7953 41.0015 33.7879 41.1243 33.7879 41.2004V41.3428H33.702H33.6161V41.5687C33.6161 41.6939 33.6087 41.8559 33.6013 41.9246C33.5842 42.0523 33.5842 42.0547 33.5007 42.0547C33.4197 42.0547 33.4172 42.0572 33.4246 42.1456C33.4319 42.2315 33.4393 42.2389 33.513 42.2462C33.5817 42.2536 33.5915 42.2634 33.5915 42.3272C33.5915 42.3935 33.5964 42.3984 33.6897 42.3984H33.7879V42.2266V42.0547H33.8714C33.9524 42.0547 33.9524 42.0523 33.9696 41.9246C33.977 41.8559 33.9843 41.7012 33.9843 41.5809V41.3673H34.0702H34.1562V41.2102C34.1562 41.1243 34.1635 41.004 34.1709 40.9426C34.1856 40.8371 34.193 40.8297 34.2642 40.8223L34.3403 40.815L34.3477 40.4639L34.355 40.1153H34.4385H34.5244V39.9729C34.5244 39.8968 34.5318 39.7741 34.5391 39.7029C34.5563 39.5777 34.5563 39.5752 34.6373 39.5752H34.7208V39.3051V39.0351H34.8043H34.8878L34.9049 38.6914L34.9221 38.3477H35.0056H35.0891V38.0777V37.8076H35.1725H35.2535L35.2707 37.6578C35.2781 37.5744 35.2855 37.4123 35.2855 37.3019V37.0957H35.3714H35.4573V36.8256V36.5556H35.5555H35.6537V36.2855V36.0155H35.7396H35.8256V35.7994C35.8256 35.6816 35.8329 35.5269 35.8403 35.4557C35.8575 35.3305 35.8575 35.3281 35.9385 35.3281H36.022V35.058V34.788H36.1079H36.1938V34.5719C36.1938 34.4541 36.2012 34.2994 36.2085 34.2282C36.2257 34.103 36.2257 34.1006 36.3067 34.1006H36.3878L36.3951 33.8232L36.4025 33.5482L36.4835 33.5408C36.5596 33.5335 36.5621 33.531 36.5621 33.4156C36.5621 33.3493 36.5694 33.229 36.5768 33.1456L36.594 32.9958H36.675H36.7585V32.7798C36.7585 32.6619 36.7658 32.5073 36.7732 32.4361C36.7879 32.3182 36.7953 32.3084 36.8567 32.3084C36.918 32.3084 36.9254 32.2986 36.9401 32.1783C36.9475 32.1096 36.9549 31.9868 36.9549 31.9083V31.7683H37.0408H37.1267V31.5523C37.1267 31.4344 37.1341 31.2822 37.1414 31.211C37.1562 31.0907 37.1611 31.0834 37.2347 31.076L37.3108 31.0687L37.3182 30.8035L37.3256 30.5408H37.4066H37.49L37.5072 30.1849L37.5244 29.8289H37.6079H37.6889L37.6963 29.5637L37.7036 29.3011L37.7846 29.2937C37.8608 29.2863 37.8632 29.2839 37.8632 29.1685C37.8632 29.1022 37.8706 28.9819 37.8779 28.8984C37.8951 28.7487 37.8951 28.7487 37.9737 28.7487H38.0522L38.0645 28.4222C38.0694 28.2454 38.0694 28.0515 38.0645 27.9925L38.0547 27.8894H37.8878H37.7233L37.7061 28.0024Z" fill="black"/>
<path d="M45.4151 29.8226L45.3267 29.8324L45.3095 30.0043L45.2923 30.1736H45.2113H45.1328L45.1156 30.3455L45.0984 30.5173H45.0125C44.9315 30.5173 44.929 30.5198 44.929 30.6155C44.929 30.7113 44.9265 30.7137 44.8455 30.7137H44.7621L44.7449 30.8856L44.7277 31.0574H44.6442C44.5632 31.0574 44.5607 31.0599 44.5607 31.1556C44.5607 31.2514 44.5583 31.2538 44.4773 31.2538H44.3938L44.3766 31.4257L44.3594 31.5975H44.276H44.1925V31.7669V31.9388L44.1017 31.9462C44.0133 31.9535 44.0084 31.9584 44.001 32.0444C43.9936 32.1327 43.9887 32.1376 43.9077 32.1376H43.8243V32.3095V32.4813H43.7261H43.6279V32.6532V32.825H43.5419C43.4585 32.825 43.456 32.8275 43.456 32.9232V33.0214H43.3578H43.2596V33.1933V33.3651H43.1761C43.0951 33.3651 43.0902 33.37 43.0828 33.456C43.0755 33.5444 43.0706 33.5493 42.9846 33.5566L42.8914 33.564V33.7358V33.9052H42.8079H42.7244L42.7072 34.0771L42.69 34.2489H42.6066C42.5256 34.2489 42.5231 34.2514 42.5231 34.3471C42.5231 34.4429 42.5206 34.4453 42.4396 34.4453H42.3537L42.3365 34.6172L42.3193 34.789H42.2408H42.1598L42.1426 34.9609L42.1254 35.1327H42.0419C41.9609 35.1327 41.9585 35.1352 41.9585 35.2309C41.9585 35.3267 41.956 35.3291 41.875 35.3291H41.7915L41.7743 35.501L41.7571 35.6728H41.6737C41.5927 35.6728 41.5902 35.6753 41.5902 35.771C41.5902 35.8668 41.5878 35.8692 41.5067 35.8692H41.4233L41.4061 36.0411L41.3889 36.2129H41.3054H41.222V36.3848V36.5566H41.1238H41.0256V36.6548C41.0256 36.7506 41.0231 36.753 40.9396 36.753H40.8537V36.9249V37.0967H40.7555H40.6573V37.2686V37.4404H40.5738H40.4928L40.4756 37.5902C40.4683 37.6736 40.4609 37.7964 40.4609 37.8602V37.9805H40.375H40.2891V38.1524V38.3242H40.3725H40.456L40.4732 38.1524L40.4904 37.9805H40.5738C40.6524 37.9805 40.6573 37.9756 40.6573 37.8946C40.6573 37.8136 40.6622 37.8087 40.7408 37.8087H40.8243L40.8414 37.6245L40.8586 37.4404H40.9421C41.0207 37.4404 41.0256 37.4355 41.0256 37.3545C41.0256 37.2735 41.0305 37.2686 41.109 37.2686H41.1925L41.2097 37.0967L41.2269 36.9249H41.3079H41.3889L41.4061 36.7407L41.4233 36.5566H41.5067C41.5853 36.5566 41.5902 36.5517 41.5902 36.4707C41.5902 36.3897 41.5951 36.3848 41.6737 36.3848H41.7571L41.7743 36.2007L41.7915 36.0165H41.875H41.9585V35.8594V35.6998L42.0517 35.6925C42.1377 35.6851 42.1426 35.6802 42.1499 35.5918C42.1573 35.5059 42.1622 35.501 42.2408 35.501H42.3243L42.3316 35.3218L42.339 35.145L42.4323 35.1376C42.5182 35.1303 42.5231 35.1254 42.5231 35.0443C42.5231 34.9658 42.528 34.9609 42.609 34.9609H42.695V34.7915V34.6196L42.7882 34.6123L42.8791 34.6049L42.8864 34.4257L42.8938 34.2489H42.9773C43.0583 34.2489 43.0632 34.244 43.0632 34.163C43.0632 34.0795 43.0657 34.0771 43.1614 34.0771H43.2596V33.9052V33.7334H43.3431H43.4265L43.4437 33.5615L43.4609 33.3897H43.5444C43.6254 33.3897 43.6279 33.3872 43.6279 33.2915C43.6279 33.1957 43.6303 33.1933 43.7113 33.1933H43.7948L43.812 33.0214L43.8292 32.8496H43.9126C43.9936 32.8496 43.9961 32.8471 43.9961 32.7514C43.9961 32.6556 43.9986 32.6532 44.0796 32.6532H44.163L44.1802 32.4813L44.1974 32.3095H44.2784H44.357L44.3742 32.1376L44.3914 31.9658H44.4773C44.5583 31.9658 44.5607 31.9633 44.5607 31.8676C44.5607 31.7718 44.5632 31.7694 44.6442 31.7694H44.7277L44.7449 31.5975L44.7621 31.4257H44.8431H44.9216L44.9388 31.2563C44.956 31.0844 44.956 31.0844 45.0346 31.0771C45.1058 31.0697 45.1131 31.0624 45.1205 30.9764C45.1279 30.8905 45.1328 30.8856 45.2138 30.8856H45.2972V30.7162V30.5444L45.3905 30.537C45.4765 30.5296 45.4814 30.5247 45.4887 30.4363C45.4961 30.3504 45.501 30.3455 45.582 30.3455H45.6655V30.1736V30.0018H45.7637C45.8594 30.0018 45.8619 29.9993 45.8619 29.9159C45.8619 29.8422 45.8545 29.8299 45.8079 29.8299C45.776 29.8299 45.6974 29.825 45.6287 29.8201C45.5624 29.8152 45.4666 29.8152 45.4151 29.8226Z" fill="black"/>
<path d="M43.2578 30.086C43.2578 30.167 43.2627 30.1719 43.3437 30.1719C43.4248 30.1719 43.4297 30.167 43.4297 30.086C43.4297 30.0049 43.4248 30 43.3437 30C43.2627 30 43.2578 30.0049 43.2578 30.086Z" fill="black"/>
<path d="M51.2418 31.6814C51.2418 31.7624 51.2369 31.7673 51.1559 31.7673C51.0724 31.7673 51.0699 31.7698 51.0699 31.8655V31.9637H50.9717H50.8735V32.1356V32.3074H50.7901H50.7066L50.6894 32.4793L50.6722 32.6511H50.5888C50.5077 32.6511 50.5053 32.6536 50.5053 32.7493C50.5053 32.8451 50.5028 32.8475 50.4218 32.8475H50.3383L50.3212 33.0194L50.304 33.1912H50.223H50.1444L50.1272 33.3606C50.11 33.5325 50.11 33.5325 50.0315 33.5398C49.9603 33.5472 49.9529 33.5546 49.9455 33.638C49.9382 33.7264 49.9333 33.7313 49.8523 33.7313H49.7688V33.9007V34.0726L49.6779 34.0799L49.5847 34.0873L49.5773 34.2518L49.5699 34.4187H49.4865C49.403 34.4187 49.4005 34.4212 49.4005 34.5169V34.6151H49.3023H49.2041V34.787V34.9588H49.1207H49.0372L49.02 35.1307L49.0028 35.3025H48.9194C48.8383 35.3025 48.8359 35.305 48.8359 35.4007C48.8359 35.4965 48.8334 35.4989 48.7524 35.4989H48.6689L48.6518 35.6708L48.6346 35.8426H48.5511C48.4701 35.8426 48.4676 35.8451 48.4676 35.9408C48.4676 36.0366 48.4652 36.039 48.3842 36.039H48.3007L48.2835 36.2109L48.2663 36.3827H48.1829H48.0994V36.5546V36.7264H48.0012H47.903V36.8246C47.903 36.9204 47.9005 36.9228 47.8171 36.9228H47.7311V37.0947V37.2665H47.6329H47.5347V37.4384V37.6102H47.4513C47.3703 37.6102 47.3653 37.6151 47.358 37.7011C47.3506 37.7894 47.3457 37.7943 47.2598 37.8017L47.1665 37.8091V37.9785V38.1479L47.0757 38.1552L46.9824 38.1626L46.975 38.3271L46.9676 38.494H46.8842C46.8007 38.494 46.7982 38.4965 46.7982 38.5922C46.7982 38.688 46.7958 38.6904 46.7148 38.6904H46.6313L46.6141 38.8623L46.5969 39.0341H46.5159H46.4349L46.4177 39.2182L46.4005 39.4024H46.3171C46.2385 39.4024 46.2336 39.4073 46.2336 39.4883C46.2336 39.5693 46.2287 39.5742 46.1477 39.5742H46.0617V39.7461V39.9179H45.9635H45.8678L45.8604 40.0947L45.8531 40.2739L45.7622 40.2813C45.6739 40.2886 45.6689 40.2935 45.6689 40.3745C45.6689 40.4531 45.664 40.458 45.583 40.458H45.4996L45.4922 40.6348L45.4848 40.814L45.394 40.8213L45.3007 40.8287V41.0006V41.17H45.2148C45.1338 41.17 45.1288 41.1749 45.1288 41.2534C45.1288 41.3344 45.1239 41.3394 45.038 41.3467L44.9447 41.3541L44.9374 41.5308L44.93 41.7101H44.849H44.7655L44.7483 41.8819L44.7311 42.0538H44.6477C44.5691 42.0538 44.5642 42.0587 44.5642 42.1397C44.5642 42.2207 44.5593 42.2256 44.4807 42.2256H44.3973L44.3801 42.4097L44.3629 42.5939H44.2819H44.2009L44.1837 42.7657L44.1665 42.9376H44.0806H43.9922L44.0094 43.0652C44.0167 43.1364 44.0241 43.215 44.0241 43.2371C44.0241 43.2739 44.0487 43.2812 44.196 43.2812H44.3678V43.1094V42.9376H44.466H44.5642V42.7657V42.5939H44.6477C44.7287 42.5939 44.7336 42.5889 44.741 42.5006C44.7483 42.4146 44.7532 42.4097 44.8416 42.4024L44.9324 42.395V42.2231V42.0538H45.0159H45.0994L45.1166 41.8819L45.1338 41.7101H45.2172C45.2982 41.7101 45.3007 41.7076 45.3007 41.6119C45.3007 41.5161 45.3032 41.5137 45.3842 41.5137H45.4676L45.4848 41.3418L45.502 41.17H45.583H45.6616L45.6788 40.9981L45.696 40.8263H45.7819C45.8629 40.8263 45.8653 40.8238 45.8653 40.7281C45.8653 40.6323 45.8678 40.6299 45.9488 40.6299H46.0323L46.0495 40.458L46.0667 40.2862H46.1501H46.2336V40.1168V39.9449L46.3269 39.9376C46.4128 39.9302 46.4177 39.9253 46.4251 39.8369C46.4324 39.751 46.4374 39.7461 46.5184 39.7461H46.6018V39.5767V39.4048L46.6951 39.3975L46.786 39.3901L46.7933 39.2231L46.8007 39.0587H46.8842C46.9676 39.0587 46.9701 39.0562 46.9701 38.9605V38.8623H47.0683H47.1665V38.6904V38.5186H47.2524C47.3359 38.5186 47.3383 38.5161 47.3383 38.4204V38.3222H47.4365H47.5347V38.1503V37.9785H47.6182H47.7017L47.7189 37.8066L47.7361 37.6348H47.8195C47.9005 37.6348 47.903 37.6323 47.903 37.5366C47.903 37.4408 47.9054 37.4384 47.9865 37.4384H48.0699L48.0871 37.2665L48.1043 37.0947H48.1878H48.2688L48.2761 36.9155L48.2835 36.7387L48.3768 36.7313C48.4627 36.724 48.4676 36.7191 48.4676 36.638C48.4676 36.5595 48.4725 36.5546 48.5536 36.5546H48.6395V36.3827V36.2109H48.7377H48.8359V36.0267V35.8426H48.9218C49.0028 35.8426 49.0077 35.8377 49.0077 35.7567C49.0077 35.6732 49.0102 35.6708 49.1059 35.6708H49.2041V35.4989V35.3271H49.2876H49.3711L49.3883 35.143L49.4054 34.9588H49.4889C49.5675 34.9588 49.5724 34.9539 49.5724 34.8729C49.5724 34.7919 49.5773 34.787 49.6559 34.787H49.7393L49.7565 34.6029L49.7737 34.4187H49.8547H49.9357L49.9529 34.2469L49.9701 34.075H50.0536C50.1321 34.075 50.137 34.0701 50.137 33.9891C50.137 33.9081 50.1419 33.9032 50.2205 33.9032H50.304L50.3212 33.7191L50.3383 33.5349H50.4218H50.5053V33.3631V33.1912H50.6035H50.7017V33.093C50.7017 32.9973 50.7041 32.9948 50.7876 32.9948H50.8735V32.823V32.6511H50.9717H51.0699V32.4793V32.3074H51.1559C51.2393 32.3074 51.2418 32.305 51.2418 32.2092V32.111H51.34H51.4382V31.9392V31.7673H51.5241C51.6051 31.7673 51.61 31.7624 51.61 31.6814V31.5955H51.4259H51.2418V31.6814Z" fill="black"/>
<path d="M47.1651 33.4644C47.1651 33.5601 47.1627 33.5626 47.0817 33.5626H46.9982L46.981 33.7345L46.9638 33.9063H46.8803C46.8018 33.9063 46.7969 33.9112 46.7969 33.9922V34.0782H46.981H47.1651V34.1641C47.1651 34.2451 47.17 34.25 47.251 34.25H47.337V34.0782V33.9063H47.4352H47.5334V33.8081C47.5334 33.7124 47.5358 33.7099 47.6193 33.7099C47.7003 33.7099 47.7052 33.705 47.7052 33.624C47.7052 33.543 47.7003 33.5381 47.6193 33.5381C47.5383 33.5381 47.5334 33.5331 47.5334 33.4521V33.3662H47.3492H47.1651V33.4644Z" fill="black"/>
<path d="M46.4242 34.3406C46.4168 34.4289 46.4119 34.4338 46.326 34.4412L46.2327 34.4486V34.6204V34.7898H46.1468C46.0658 34.7898 46.0609 34.7947 46.0609 34.8757C46.0609 34.9592 46.0584 34.9617 45.9627 34.9617H45.8645V35.1458V35.3299H45.781H45.6975L45.6803 35.5018L45.6632 35.6736H45.5797C45.5011 35.6736 45.4962 35.6785 45.4962 35.7595C45.4962 35.8406 45.4913 35.8455 45.4127 35.8455H45.3293L45.3121 36.0296L45.2949 36.2137H45.2114C45.1329 36.2137 45.128 36.2186 45.128 36.2996C45.128 36.3807 45.1231 36.3856 45.0445 36.3856H44.961L44.9438 36.5574L44.9267 36.7293H44.8456H44.7646L44.7474 36.9134L44.7303 37.0975H44.6468C44.5682 37.0975 44.5633 37.1024 44.5633 37.1834C44.5633 37.2644 44.5584 37.2694 44.4798 37.2694H44.3964L44.3792 37.4535L44.362 37.6376H44.281H44.2L44.1828 37.8095L44.1656 37.9813H44.0821C44.0036 37.9813 43.9987 37.9862 43.9987 38.0672C43.9987 38.1482 43.9938 38.1532 43.9127 38.1532H43.8293L43.8219 38.3299L43.8145 38.5091L43.7237 38.5165C43.6353 38.5239 43.6304 38.5288 43.6304 38.6098C43.6304 38.6883 43.6255 38.6933 43.5445 38.6933H43.4586V38.8651V39.037H43.3604H43.2622V39.2211V39.4052H43.1762C43.0952 39.4052 43.0903 39.4101 43.0903 39.4911C43.0903 39.5746 43.0879 39.5771 42.9921 39.5771H42.8939V39.7489V39.9207H42.8105H42.727L42.7098 40.1049L42.6926 40.289H42.6091C42.5306 40.289 42.5257 40.2939 42.5257 40.3749C42.5257 40.4584 42.5232 40.4608 42.4275 40.4608H42.3293V40.6327V40.8045H42.2458H42.1648L42.1476 40.9764L42.1304 41.1482H42.0445C41.9635 41.1482 41.961 41.1507 41.961 41.2464C41.961 41.3422 41.9586 41.3446 41.8776 41.3446H41.7941L41.7769 41.5288L41.7597 41.7129H41.6762C41.5977 41.7129 41.5928 41.7178 41.5928 41.7988C41.5928 41.8798 41.5879 41.8847 41.5093 41.8847H41.4258L41.4087 42.0566L41.3915 42.2284H41.308H41.2245V42.3978V42.5697L41.1337 42.5771C41.0453 42.5844 41.0404 42.5893 41.033 42.6753C41.0257 42.7636 41.0208 42.7685 40.9398 42.7685H40.8563V42.9379V43.1098L40.7654 43.1171L40.6722 43.1245L40.6648 43.289L40.6574 43.4559H40.574C40.4905 43.4559 40.488 43.4584 40.488 43.5541V43.6523H40.3898H40.2916V43.8242V43.996H40.2082C40.1271 43.996 40.1222 44.0009 40.1149 44.0869C40.1075 44.1753 40.1026 44.1802 40.0167 44.1875L39.9234 44.1949V44.3667V44.5361H39.8399H39.7564L39.7393 44.708L39.7221 44.8798H39.6386C39.5576 44.8798 39.5551 44.8823 39.5551 44.978C39.5551 45.0738 39.5527 45.0762 39.4717 45.0762H39.3882L39.371 45.2481L39.3538 45.4199H39.2728H39.1943L39.1771 45.5918L39.1599 45.7636H39.074C38.9929 45.7636 38.9905 45.7661 38.9905 45.8618C38.9905 45.9576 38.988 45.96 38.907 45.96H38.8235L38.8064 46.1319L38.7892 46.3037H38.7057H38.6222V46.4879V46.672H38.5412H38.4578L38.443 46.9101C38.4357 47.0427 38.4357 47.1973 38.443 47.2538C38.4553 47.3496 38.4627 47.3594 38.5265 47.3594C38.5928 47.3594 38.5952 47.3545 38.6124 47.1875L38.6296 47.0157H38.7082H38.7892L38.8064 46.8438L38.8235 46.672H38.907C38.988 46.672 38.9905 46.6695 38.9905 46.5738C38.9905 46.478 38.9929 46.4756 39.074 46.4756H39.1574L39.1746 46.3037L39.1918 46.1319H39.2728H39.3514L39.3686 45.96L39.3857 45.7882H39.4717C39.5527 45.7882 39.5551 45.7857 39.5551 45.69C39.5551 45.5942 39.5576 45.5918 39.6411 45.5918H39.727V45.4199V45.2481H39.8252H39.9234V45.1499C39.9234 45.0541 39.9258 45.0517 40.0093 45.0517H40.0928L40.1001 44.8847L40.1075 44.7203L40.2008 44.7129L40.2916 44.7055V44.5337V44.3643H40.3751C40.4561 44.3643 40.461 44.3594 40.4684 44.271C40.4758 44.1851 40.4807 44.1802 40.569 44.1728L40.6599 44.1654V43.9936V43.8242H40.7434H40.8268L40.844 43.6523L40.8612 43.4805H40.9422C41.0208 43.4805 41.0257 43.4756 41.033 43.3872C41.0404 43.3037 41.0478 43.2964 41.119 43.289C41.1975 43.2816 41.1975 43.2816 41.2147 43.1098L41.2319 42.9404H41.3129C41.389 42.9404 41.3939 42.9355 41.4013 42.8471C41.4087 42.7636 41.416 42.7563 41.4872 42.7489C41.5658 42.7415 41.5658 42.7415 41.583 42.5697L41.6001 42.4003H41.6787H41.7597L41.7769 42.2284L41.7941 42.0566H41.8776C41.9586 42.0566 41.961 42.0541 41.961 41.9584C41.961 41.8626 41.9635 41.8602 42.0445 41.8602H42.128L42.1452 41.6883L42.1623 41.5165H42.2458H42.3293V41.3446V41.1728H42.4275H42.5257V41.0746C42.5257 40.9789 42.5281 40.9764 42.6116 40.9764H42.6951L42.7024 40.8095L42.7098 40.645L42.8031 40.6376L42.8939 40.6302V40.4584V40.289H42.9774C43.0584 40.289 43.0633 40.2841 43.0707 40.1957C43.078 40.1098 43.083 40.1049 43.1713 40.0975L43.2622 40.0901V39.9183V39.7489H43.3456C43.4267 39.7489 43.4316 39.744 43.4389 39.6556C43.4463 39.5697 43.4512 39.5648 43.5396 39.5574L43.6304 39.55V39.3782V39.2088H43.7286H43.8268V39.037V38.8651H43.9127C43.9938 38.8651 43.9987 38.8602 43.9987 38.7816C43.9987 38.7006 44.0036 38.6957 44.092 38.6883L44.1828 38.681L44.1902 38.5018L44.1975 38.325H44.2785H44.362L44.3792 38.1532L44.3964 37.9813H44.4798C44.5584 37.9813 44.5633 37.9764 44.5633 37.8954C44.5633 37.8144 44.5682 37.8095 44.6468 37.8095H44.7303L44.7474 37.6253L44.7646 37.4412H44.8481C44.9267 37.4412 44.9316 37.4363 44.9316 37.3553C44.9316 37.2743 44.9365 37.2694 45.015 37.2694H45.0985L45.1157 37.0852L45.1329 36.9011H45.2163H45.2998V36.7293V36.5574H45.398C45.4938 36.5574 45.4962 36.555 45.4962 36.4715C45.4962 36.3905 45.5011 36.3856 45.5821 36.3856H45.6656L45.673 36.2063L45.6803 36.0296L45.7736 36.0222L45.8645 36.0149V35.843V35.6736H45.9504C46.0314 35.6736 46.0363 35.6687 46.0363 35.5877C46.0363 35.5042 46.0388 35.5018 46.1345 35.5018H46.2327V35.3176V35.1335H46.3162H46.3997L46.4168 34.9617L46.434 34.7898H46.5175C46.5961 34.7898 46.601 34.7849 46.601 34.7039C46.601 34.6229 46.6059 34.618 46.6869 34.618C46.7704 34.618 46.7728 34.6155 46.7728 34.5198C46.7728 34.424 46.7704 34.4216 46.6869 34.4216C46.6059 34.4216 46.601 34.4167 46.601 34.3356C46.601 34.2546 46.5961 34.2497 46.5175 34.2497C46.4365 34.2497 46.4316 34.2546 46.4242 34.3406Z" fill="black"/>
<path d="M32.9704 37.0892C32.882 37.099 32.882 37.1014 32.8648 37.2266C32.8575 37.2978 32.8501 37.4132 32.8501 37.482V37.6121H32.7642H32.6783V37.752C32.6783 37.8306 32.6709 37.9533 32.6635 38.0221C32.6464 38.1497 32.6464 38.1522 32.5653 38.1522H32.4819V38.3363V38.5204H32.3959H32.31V38.7757V39.0335L32.2192 39.0409L32.1259 39.0483L32.1185 39.3109L32.1112 39.5761H32.0277H31.9418V39.716C31.9418 39.7946 31.9344 39.9173 31.927 39.9861C31.9099 40.1137 31.9099 40.1162 31.8288 40.1162H31.7454V40.3739V40.6317H31.6594H31.5735V40.752C31.5735 40.8158 31.5662 40.9386 31.5588 41.0221L31.5416 41.1718H31.4606H31.3771V41.4419V41.7119H31.2937C31.2126 41.7119 31.2126 41.7144 31.1955 41.8396C31.1881 41.9108 31.1807 42.0286 31.1807 42.0973V42.2275H31.0948H31.0089V42.4975V42.7676H30.9107H30.8125V43.0376V43.3077H30.7265H30.6406V43.9214V44.5352H30.7265H30.8125V44.2798V44.0221L30.9058 44.0147L30.9966 44.0073L31.004 43.7422L31.0113 43.4795H31.0948H31.1807V43.3347C31.1807 43.2561 31.1881 43.1407 31.1955 43.0793C31.2102 42.9738 31.2175 42.9664 31.2887 42.9591L31.3648 42.9517L31.3722 42.6865L31.3796 42.4239H31.463H31.549V42.2815C31.549 42.2054 31.5563 42.0826 31.5637 42.0114C31.5809 41.8862 31.5809 41.8838 31.6619 41.8838H31.7454V41.626V41.3682H31.8313H31.9148L31.9221 41.1767L31.9295 40.9877L32.0228 40.9803L32.1136 40.973V40.7152V40.4599H32.1971C32.2781 40.4599 32.2781 40.4574 32.2953 40.3298C32.3027 40.261 32.31 40.1383 32.31 40.0597V39.9198H32.3959H32.4819V39.6645V39.4067L32.5752 39.3993L32.666 39.3919L32.6734 39.1268L32.6807 38.8641H32.7642H32.8501V38.7217C32.8501 38.6456 32.8575 38.5229 32.8648 38.4517C32.882 38.3265 32.882 38.324 32.963 38.324H33.0465V38.0663V37.8085H33.1324H33.2184V37.6661C33.2184 37.59 33.2257 37.4672 33.2331 37.396C33.2503 37.2708 33.2503 37.2684 33.3313 37.2684C33.4099 37.2684 33.4148 37.2635 33.4148 37.1825C33.4148 37.1088 33.4074 37.0965 33.3608 37.0965C33.3288 37.0965 33.2503 37.0916 33.1815 37.0867C33.1153 37.0818 33.0195 37.0818 32.9704 37.0892Z" fill="black"/>
<path d="M43.4512 43.3873C43.4438 43.4609 43.4364 43.4683 43.353 43.4757C43.2646 43.483 43.2597 43.4879 43.2597 43.569C43.2597 43.6475 43.2548 43.6524 43.1762 43.6524H43.0952L43.078 43.812C43.0682 43.9004 43.0682 43.9838 43.0756 43.9961C43.0854 44.0108 43.1296 44.0207 43.1762 44.0207C43.2523 44.0207 43.2597 44.0256 43.2597 44.0943C43.2597 44.1631 43.2646 44.168 43.3579 44.168C43.4536 44.168 43.4561 44.1655 43.4561 44.082C43.4561 44.001 43.461 43.9961 43.542 43.9961C43.623 43.9961 43.6279 43.9912 43.6279 43.9102C43.6279 43.8292 43.6328 43.8243 43.7114 43.8243C43.7924 43.8243 43.7924 43.8218 43.8096 43.6942C43.8342 43.4781 43.8366 43.4806 43.7261 43.4806C43.6304 43.4806 43.6279 43.4781 43.6279 43.3946C43.6279 43.3136 43.623 43.3087 43.5445 43.3087C43.4659 43.3087 43.4585 43.3161 43.4512 43.3873Z" fill="black"/>
<path d="M38.25 47.4688C38.25 47.5498 38.2549 47.5547 38.3359 47.5547C38.4169 47.5547 38.4218 47.5498 38.4218 47.4688C38.4218 47.3877 38.4169 47.3828 38.3359 47.3828C38.2549 47.3828 38.25 47.3877 38.25 47.4688Z" fill="black"/>
</svg>
